  0
SECTION
  2
HEADER
  9
$ACADVER
  1
AC1009
  9
$EXTMIN
 10
0.0
 20
0.0
 30
0.0
  9
$EXTMAX
 10
1000.0
 20
1000.0
 30
0.0
  9
$FILLMODE
 70
 0
  9
$SPLFRAME
 70
 1
  0
ENDSEC
  0
SECTION
  2
TABLES
  0
TABLE
  2
LAYER
 70
1
  0
LAYER
  2
0
 70
     0
 62
     7
  6
CONTINUOUS
  0
ENDTAB
  0
ENDSEC
  0
SECTION
  2
ENTITIES
  0
LINE
  8
0
 62
     5
 10
0.0633899
 20
95.3121
 30
0.0
 11
285.815
 21
95.3121
 31
0.0
  0
LINE
  8
0
 62
     5
 10
285.815
 20
95.3121
 30
0.0
 11
285.815
 21
0.0620116
 31
0.0
  0
LINE
  8
0
 62
     5
 10
285.815
 20
0.0620116
 30
0.0
 11
0.0633899
 21
0.0620116
 31
0.0
  0
LINE
  8
0
 62
     5
 10
0.0633899
 20
0.0620116
 30
0.0
 11
0.0633899
 21
95.3121
 31
0.0
  0
LINE
  8
0
 62
     5
 10
135.938
 20
16.5874
 30
0.0
 11
135.938
 21
11.887
 31
0.0
  0
LINE
  8
0
 62
     5
 10
135.938
 20
11.887
 30
0.0
 11
89.1632
 21
11.887
 31
0.0
  0
LINE
  8
0
 62
     5
 10
89.1632
 20
11.887
 30
0.0
 11
89.1632
 21
15.1171
 31
0.0
  0
LINE
  8
0
 62
     5
 10
89.1632
 20
15.1171
 30
0.0
 11
82.4135
 21
15.1171
 31
0.0
  0
LINE
  8
0
 62
     5
 10
82.4135
 20
15.1171
 30
0.0
 11
82.4135
 21
11.887
 31
0.0
  0
LINE
  8
0
 62
     5
 10
82.4135
 20
11.887
 30
0.0
 11
81.588
 21
11.887
 31
0.0
  0
LINE
  8
0
 62
     5
 10
81.588
 20
11.887
 30
0.0
 11
81.588
 21
9.08678
 31
0.0
  0
LINE
  8
0
 62
     5
 10
81.588
 20
9.08678
 30
0.0
 11
82.4135
 21
9.08678
 31
0.0
  0
LINE
  8
0
 62
     5
 10
82.4135
 20
9.08678
 30
0.0
 11
82.4135
 21
2.81809
 31
0.0
  0
LINE
  8
0
 62
     5
 10
82.4135
 20
2.81809
 30
0.0
 11
84.1389
 21
2.81809
 31
0.0
  0
LINE
  8
0
 62
     5
 10
84.1389
 20
2.81809
 30
0.0
 11
84.1389
 21
1.61644
 31
0.0
  0
LINE
  8
0
 62
     5
 10
84.1389
 20
1.61644
 30
0.0
 11
87.4377
 21
1.61644
 31
0.0
  0
LINE
  8
0
 62
     5
 10
87.4377
 20
1.61644
 30
0.0
 11
87.4377
 21
2.81809
 31
0.0
  0
LINE
  8
0
 62
     5
 10
87.4377
 20
2.81809
 30
0.0
 11
89.1632
 21
2.81809
 31
0.0
  0
LINE
  8
0
 62
     5
 10
89.1632
 20
2.81809
 30
0.0
 11
89.1632
 21
7.28846
 31
0.0
  0
LINE
  8
0
 62
     5
 10
89.1632
 20
7.28846
 30
0.0
 11
135.938
 21
7.28846
 31
0.0
  0
LINE
  8
0
 62
     5
 10
135.938
 20
7.28846
 30
0.0
 11
135.938
 21
2.58658
 31
0.0
  0
LINE
  8
0
 62
     5
 10
135.938
 20
2.58658
 30
0.0
 11
149.939
 21
2.58658
 31
0.0
  0
LINE
  8
0
 62
     5
 10
149.939
 20
2.58658
 30
0.0
 11
149.939
 21
7.28846
 31
0.0
  0
LINE
  8
0
 62
     5
 10
149.939
 20
7.28846
 30
0.0
 11
196.713
 21
7.28846
 31
0.0
  0
LINE
  8
0
 62
     5
 10
196.713
 20
7.28846
 30
0.0
 11
196.713
 21
2.81809
 31
0.0
  0
LINE
  8
0
 62
     5
 10
196.713
 20
2.81809
 30
0.0
 11
198.439
 21
2.81809
 31
0.0
  0
LINE
  8
0
 62
     5
 10
198.439
 20
2.81809
 30
0.0
 11
198.439
 21
1.61644
 31
0.0
  0
LINE
  8
0
 62
     5
 10
198.439
 20
1.61644
 30
0.0
 11
201.738
 21
1.61644
 31
0.0
  0
LINE
  8
0
 62
     5
 10
201.738
 20
1.61644
 30
0.0
 11
201.738
 21
2.81809
 31
0.0
  0
LINE
  8
0
 62
     5
 10
201.738
 20
2.81809
 30
0.0
 11
203.463
 21
2.81809
 31
0.0
  0
LINE
  8
0
 62
     5
 10
203.463
 20
2.81809
 30
0.0
 11
203.463
 21
9.08678
 31
0.0
  0
LINE
  8
0
 62
     5
 10
203.463
 20
9.08678
 30
0.0
 11
204.289
 21
9.08678
 31
0.0
  0
LINE
  8
0
 62
     5
 10
204.289
 20
9.08678
 30
0.0
 11
204.289
 21
11.887
 31
0.0
  0
LINE
  8
0
 62
     5
 10
204.289
 20
11.887
 30
0.0
 11
203.463
 21
11.887
 31
0.0
  0
LINE
  8
0
 62
     5
 10
203.463
 20
11.887
 30
0.0
 11
203.463
 21
15.1171
 31
0.0
  0
LINE
  8
0
 62
     5
 10
203.463
 20
15.1171
 30
0.0
 11
196.713
 21
15.1171
 31
0.0
  0
LINE
  8
0
 62
     5
 10
196.713
 20
15.1171
 30
0.0
 11
196.713
 21
11.887
 31
0.0
  0
LINE
  8
0
 62
     5
 10
196.713
 20
11.887
 30
0.0
 11
149.939
 21
11.887
 31
0.0
  0
LINE
  8
0
 62
     5
 10
149.939
 20
11.887
 30
0.0
 11
149.939
 21
16.5874
 31
0.0
  0
LINE
  8
0
 62
     5
 10
149.939
 20
16.5874
 30
0.0
 11
135.938
 21
16.5874
 31
0.0
  0
LINE
  8
0
 62
     5
 10
7.35044
 20
16.5874
 30
0.0
 11
21.3499
 21
16.5874
 31
0.0
  0
LINE
  8
0
 62
     5
 10
21.3499
 20
16.5874
 30
0.0
 11
21.3499
 21
2.58658
 31
0.0
  0
LINE
  8
0
 62
     5
 10
21.3499
 20
2.58658
 30
0.0
 11
7.35044
 21
2.58658
 31
0.0
  0
LINE
  8
0
 62
     5
 10
7.35044
 20
2.58658
 30
0.0
 11
7.35044
 21
16.5874
 31
0.0
  0
LINE
  8
0
 62
     5
 10
31.1629
 20
16.5874
 30
0.0
 11
45.1637
 21
16.5874
 31
0.0
  0
LINE
  8
0
 62
     5
 10
45.1637
 20
16.5874
 30
0.0
 11
45.1637
 21
2.58658
 31
0.0
  0
LINE
  8
0
 62
     5
 10
45.1637
 20
2.58658
 30
0.0
 11
31.1629
 21
2.58658
 31
0.0
  0
LINE
  8
0
 62
     5
 10
31.1629
 20
2.58658
 30
0.0
 11
31.1629
 21
16.5874
 31
0.0
  0
LINE
  8
0
 62
     5
 10
54.9755
 20
16.5874
 30
0.0
 11
68.9751
 21
16.5874
 31
0.0
  0
LINE
  8
0
 62
     5
 10
68.9751
 20
16.5874
 30
0.0
 11
68.9751
 21
2.58658
 31
0.0
  0
LINE
  8
0
 62
     5
 10
68.9751
 20
2.58658
 30
0.0
 11
54.9755
 21
2.58658
 31
0.0
  0
LINE
  8
0
 62
     5
 10
54.9755
 20
2.58658
 30
0.0
 11
54.9755
 21
16.5874
 31
0.0
  0
LINE
  8
0
 62
     5
 10
216.9
 20
16.5874
 30
0.0
 11
230.9
 21
16.5874
 31
0.0
  0
LINE
  8
0
 62
     5
 10
230.9
 20
16.5874
 30
0.0
 11
230.9
 21
2.58658
 31
0.0
  0
LINE
  8
0
 62
     5
 10
230.9
 20
2.58658
 30
0.0
 11
216.9
 21
2.58658
 31
0.0
  0
LINE
  8
0
 62
     5
 10
216.9
 20
2.58658
 30
0.0
 11
216.9
 21
16.5874
 31
0.0
  0
LINE
  8
0
 62
     5
 10
240.713
 20
16.5874
 30
0.0
 11
254.713
 21
16.5874
 31
0.0
  0
LINE
  8
0
 62
     5
 10
254.713
 20
16.5874
 30
0.0
 11
254.713
 21
2.58658
 31
0.0
  0
LINE
  8
0
 62
     5
 10
254.713
 20
2.58658
 30
0.0
 11
240.713
 21
2.58658
 31
0.0
  0
LINE
  8
0
 62
     5
 10
240.713
 20
2.58658
 30
0.0
 11
240.713
 21
16.5874
 31
0.0
  0
LINE
  8
0
 62
     5
 10
264.525
 20
16.5874
 30
0.0
 11
278.525
 21
16.5874
 31
0.0
  0
LINE
  8
0
 62
     5
 10
278.525
 20
16.5874
 30
0.0
 11
278.525
 21
2.58658
 31
0.0
  0
LINE
  8
0
 62
     5
 10
278.525
 20
2.58658
 30
0.0
 11
264.525
 21
2.58658
 31
0.0
  0
LINE
  8
0
 62
     5
 10
264.525
 20
2.58658
 30
0.0
 11
264.525
 21
16.5874
 31
0.0
  0
LINE
  8
0
 62
     5
 10
14.4942
 20
35.6376
 30
0.0
 11
14.4942
 21
30.937
 31
0.0
  0
LINE
  8
0
 62
     5
 10
14.4942
 20
30.937
 30
0.0
 11
12.9701
 21
30.937
 31
0.0
  0
LINE
  8
0
 62
     5
 10
12.9701
 20
30.937
 30
0.0
 11
12.9701
 21
34.1671
 31
0.0
  0
LINE
  8
0
 62
     5
 10
12.9701
 20
34.1671
 30
0.0
 11
6.21908
 21
34.1671
 31
0.0
  0
LINE
  8
0
 62
     5
 10
6.21908
 20
34.1671
 30
0.0
 11
6.21908
 21
30.937
 31
0.0
  0
LINE
  8
0
 62
     5
 10
6.21908
 20
30.937
 30
0.0
 11
5.39503
 21
30.937
 31
0.0
  0
LINE
  8
0
 62
     5
 10
5.39503
 20
30.937
 30
0.0
 11
5.39503
 21
28.1368
 31
0.0
  0
LINE
  8
0
 62
     5
 10
5.39503
 20
28.1368
 30
0.0
 11
6.21908
 21
28.1368
 31
0.0
  0
LINE
  8
0
 62
     5
 10
6.21908
 20
28.1368
 30
0.0
 11
6.21908
 21
21.8667
 31
0.0
  0
LINE
  8
0
 62
     5
 10
6.21908
 20
21.8667
 30
0.0
 11
7.94438
 21
21.8667
 31
0.0
  0
LINE
  8
0
 62
     5
 10
7.94438
 20
21.8667
 30
0.0
 11
7.94438
 21
20.6664
 31
0.0
  0
LINE
  8
0
 62
     5
 10
7.94438
 20
20.6664
 30
0.0
 11
11.2448
 21
20.6664
 31
0.0
  0
LINE
  8
0
 62
     5
 10
11.2448
 20
20.6664
 30
0.0
 11
11.2448
 21
21.8667
 31
0.0
  0
LINE
  8
0
 62
     5
 10
11.2448
 20
21.8667
 30
0.0
 11
12.9701
 21
21.8667
 31
0.0
  0
LINE
  8
0
 62
     5
 10
12.9701
 20
21.8667
 30
0.0
 11
12.9701
 21
26.3371
 31
0.0
  0
LINE
  8
0
 62
     5
 10
12.9701
 20
26.3371
 30
0.0
 11
14.4942
 21
26.3371
 31
0.0
  0
LINE
  8
0
 62
     5
 10
14.4942
 20
26.3371
 30
0.0
 11
14.4942
 21
21.6366
 31
0.0
  0
LINE
  8
0
 62
     5
 10
14.4942
 20
21.6366
 30
0.0
 11
28.4951
 21
21.6366
 31
0.0
  0
LINE
  8
0
 62
     5
 10
28.4951
 20
21.6366
 30
0.0
 11
28.4951
 21
26.3371
 31
0.0
  0
LINE
  8
0
 62
     5
 10
28.4951
 20
26.3371
 30
0.0
 11
30.0192
 21
26.3371
 31
0.0
  0
LINE
  8
0
 62
     5
 10
30.0192
 20
26.3371
 30
0.0
 11
30.0192
 21
21.8667
 31
0.0
  0
LINE
  8
0
 62
     5
 10
30.0192
 20
21.8667
 30
0.0
 11
31.7445
 21
21.8667
 31
0.0
  0
LINE
  8
0
 62
     5
 10
31.7445
 20
21.8667
 30
0.0
 11
31.7445
 21
20.6664
 31
0.0
  0
LINE
  8
0
 62
     5
 10
31.7445
 20
20.6664
 30
0.0
 11
35.0449
 21
20.6664
 31
0.0
  0
LINE
  8
0
 62
     5
 10
35.0449
 20
20.6664
 30
0.0
 11
35.0449
 21
21.8667
 31
0.0
  0
LINE
  8
0
 62
     5
 10
35.0449
 20
21.8667
 30
0.0
 11
36.769
 21
21.8667
 31
0.0
  0
LINE
  8
0
 62
     5
 10
36.769
 20
21.8667
 30
0.0
 11
36.769
 21
28.1368
 31
0.0
  0
LINE
  8
0
 62
     5
 10
36.769
 20
28.1368
 30
0.0
 11
37.5941
 21
28.1368
 31
0.0
  0
LINE
  8
0
 62
     5
 10
37.5941
 20
28.1368
 30
0.0
 11
37.5941
 21
30.937
 31
0.0
  0
LINE
  8
0
 62
     5
 10
37.5941
 20
30.937
 30
0.0
 11
36.769
 21
30.937
 31
0.0
  0
LINE
  8
0
 62
     5
 10
36.769
 20
30.937
 30
0.0
 11
36.769
 21
34.1671
 31
0.0
  0
LINE
  8
0
 62
     5
 10
36.769
 20
34.1671
 30
0.0
 11
30.0192
 21
34.1671
 31
0.0
  0
LINE
  8
0
 62
     5
 10
30.0192
 20
34.1671
 30
0.0
 11
30.0192
 21
30.937
 31
0.0
  0
LINE
  8
0
 62
     5
 10
30.0192
 20
30.937
 30
0.0
 11
28.4951
 21
30.937
 31
0.0
  0
LINE
  8
0
 62
     5
 10
28.4951
 20
30.937
 30
0.0
 11
28.4951
 21
35.6376
 31
0.0
  0
LINE
  8
0
 62
     5
 10
28.4951
 20
35.6376
 30
0.0
 11
14.4942
 21
35.6376
 31
0.0
  0
LINE
  8
0
 62
     5
 10
45.4505
 20
35.6376
 30
0.0
 11
59.4501
 21
35.6376
 31
0.0
  0
LINE
  8
0
 62
     5
 10
59.4501
 20
35.6376
 30
0.0
 11
59.4501
 21
21.6366
 31
0.0
  0
LINE
  8
0
 62
     5
 10
59.4501
 20
21.6366
 30
0.0
 11
45.4505
 21
21.6366
 31
0.0
  0
LINE
  8
0
 62
     5
 10
45.4505
 20
21.6366
 30
0.0
 11
45.4505
 21
35.6376
 31
0.0
  0
LINE
  8
0
 62
     5
 10
64.5005
 20
35.6376
 30
0.0
 11
78.5001
 21
35.6376
 31
0.0
  0
LINE
  8
0
 62
     5
 10
78.5001
 20
35.6376
 30
0.0
 11
78.5001
 21
21.6366
 31
0.0
  0
LINE
  8
0
 62
     5
 10
78.5001
 20
21.6366
 30
0.0
 11
64.5005
 21
21.6366
 31
0.0
  0
LINE
  8
0
 62
     5
 10
64.5005
 20
21.6366
 30
0.0
 11
64.5005
 21
35.6376
 31
0.0
  0
LINE
  8
0
 62
     5
 10
83.5505
 20
35.6376
 30
0.0
 11
97.5501
 21
35.6376
 31
0.0
  0
LINE
  8
0
 62
     5
 10
97.5501
 20
35.6376
 30
0.0
 11
97.5501
 21
21.6366
 31
0.0
  0
LINE
  8
0
 62
     5
 10
97.5501
 20
21.6366
 30
0.0
 11
83.5505
 21
21.6366
 31
0.0
  0
LINE
  8
0
 62
     5
 10
83.5505
 20
21.6366
 30
0.0
 11
83.5505
 21
35.6376
 31
0.0
  0
LINE
  8
0
 62
     5
 10
102.6
 20
35.6376
 30
0.0
 11
116.6
 21
35.6376
 31
0.0
  0
LINE
  8
0
 62
     5
 10
116.6
 20
35.6376
 30
0.0
 11
116.6
 21
21.6366
 31
0.0
  0
LINE
  8
0
 62
     5
 10
116.6
 20
21.6366
 30
0.0
 11
102.6
 21
21.6366
 31
0.0
  0
LINE
  8
0
 62
     5
 10
102.6
 20
21.6366
 30
0.0
 11
102.6
 21
35.6376
 31
0.0
  0
LINE
  8
0
 62
     5
 10
121.65
 20
35.6376
 30
0.0
 11
135.65
 21
35.6376
 31
0.0
  0
LINE
  8
0
 62
     5
 10
135.65
 20
35.6376
 30
0.0
 11
135.65
 21
21.6366
 31
0.0
  0
LINE
  8
0
 62
     5
 10
135.65
 20
21.6366
 30
0.0
 11
121.65
 21
21.6366
 31
0.0
  0
LINE
  8
0
 62
     5
 10
121.65
 20
21.6366
 30
0.0
 11
121.65
 21
35.6376
 31
0.0
  0
LINE
  8
0
 62
     5
 10
140.7
 20
35.6376
 30
0.0
 11
154.7
 21
35.6376
 31
0.0
  0
LINE
  8
0
 62
     5
 10
154.7
 20
35.6376
 30
0.0
 11
154.7
 21
21.6366
 31
0.0
  0
LINE
  8
0
 62
     5
 10
154.7
 20
21.6366
 30
0.0
 11
140.7
 21
21.6366
 31
0.0
  0
LINE
  8
0
 62
     5
 10
140.7
 20
21.6366
 30
0.0
 11
140.7
 21
35.6376
 31
0.0
  0
LINE
  8
0
 62
     5
 10
159.75
 20
35.6376
 30
0.0
 11
173.75
 21
35.6376
 31
0.0
  0
LINE
  8
0
 62
     5
 10
173.75
 20
35.6376
 30
0.0
 11
173.75
 21
21.6366
 31
0.0
  0
LINE
  8
0
 62
     5
 10
173.75
 20
21.6366
 30
0.0
 11
159.75
 21
21.6366
 31
0.0
  0
LINE
  8
0
 62
     5
 10
159.75
 20
21.6366
 30
0.0
 11
159.75
 21
35.6376
 31
0.0
  0
LINE
  8
0
 62
     5
 10
178.8
 20
35.6376
 30
0.0
 11
192.8
 21
35.6376
 31
0.0
  0
LINE
  8
0
 62
     5
 10
192.8
 20
35.6376
 30
0.0
 11
192.8
 21
21.6366
 31
0.0
  0
LINE
  8
0
 62
     5
 10
192.8
 20
21.6366
 30
0.0
 11
178.8
 21
21.6366
 31
0.0
  0
LINE
  8
0
 62
     5
 10
178.8
 20
21.6366
 30
0.0
 11
178.8
 21
35.6376
 31
0.0
  0
LINE
  8
0
 62
     5
 10
197.85
 20
35.6376
 30
0.0
 11
211.85
 21
35.6376
 31
0.0
  0
LINE
  8
0
 62
     5
 10
211.85
 20
35.6376
 30
0.0
 11
211.85
 21
21.6366
 31
0.0
  0
LINE
  8
0
 62
     5
 10
211.85
 20
21.6366
 30
0.0
 11
197.85
 21
21.6366
 31
0.0
  0
LINE
  8
0
 62
     5
 10
197.85
 20
21.6366
 30
0.0
 11
197.85
 21
35.6376
 31
0.0
  0
LINE
  8
0
 62
     5
 10
216.9
 20
35.6376
 30
0.0
 11
230.9
 21
35.6376
 31
0.0
  0
LINE
  8
0
 62
     5
 10
230.9
 20
35.6376
 30
0.0
 11
230.9
 21
21.6366
 31
0.0
  0
LINE
  8
0
 62
     5
 10
230.9
 20
21.6366
 30
0.0
 11
216.9
 21
21.6366
 31
0.0
  0
LINE
  8
0
 62
     5
 10
216.9
 20
21.6366
 30
0.0
 11
216.9
 21
35.6376
 31
0.0
  0
LINE
  8
0
 62
     5
 10
243.094
 20
35.6376
 30
0.0
 11
257.095
 21
35.6376
 31
0.0
  0
LINE
  8
0
 62
     5
 10
257.095
 20
35.6376
 30
0.0
 11
257.095
 21
21.6366
 31
0.0
  0
LINE
  8
0
 62
     5
 10
257.095
 20
21.6366
 30
0.0
 11
243.094
 21
21.6366
 31
0.0
  0
LINE
  8
0
 62
     5
 10
243.094
 20
21.6366
 30
0.0
 11
243.094
 21
35.6376
 31
0.0
  0
LINE
  8
0
 62
     5
 10
269.288
 20
35.6376
 30
0.0
 11
283.289
 21
35.6376
 31
0.0
  0
LINE
  8
0
 62
     5
 10
283.289
 20
35.6376
 30
0.0
 11
283.289
 21
21.6366
 31
0.0
  0
LINE
  8
0
 62
     5
 10
283.289
 20
21.6366
 30
0.0
 11
269.288
 21
21.6366
 31
0.0
  0
LINE
  8
0
 62
     5
 10
269.288
 20
21.6366
 30
0.0
 11
269.288
 21
35.6376
 31
0.0
  0
LINE
  8
0
 62
     5
 10
257.382
 20
54.6876
 30
0.0
 11
257.382
 21
49.9868
 31
0.0
  0
LINE
  8
0
 62
     5
 10
257.382
 20
49.9868
 30
0.0
 11
255.856
 21
49.9868
 31
0.0
  0
LINE
  8
0
 62
     5
 10
255.856
 20
49.9868
 30
0.0
 11
255.856
 21
53.2172
 31
0.0
  0
LINE
  8
0
 62
     5
 10
255.856
 20
53.2172
 30
0.0
 11
249.107
 21
53.2172
 31
0.0
  0
LINE
  8
0
 62
     5
 10
249.107
 20
53.2172
 30
0.0
 11
249.107
 21
49.9868
 31
0.0
  0
LINE
  8
0
 62
     5
 10
249.107
 20
49.9868
 30
0.0
 11
248.281
 21
49.9868
 31
0.0
  0
LINE
  8
0
 62
     5
 10
248.281
 20
49.9868
 30
0.0
 11
248.281
 21
47.1868
 31
0.0
  0
LINE
  8
0
 62
     5
 10
248.281
 20
47.1868
 30
0.0
 11
249.107
 21
47.1868
 31
0.0
  0
LINE
  8
0
 62
     5
 10
249.107
 20
47.1868
 30
0.0
 11
249.107
 21
40.918
 31
0.0
  0
LINE
  8
0
 62
     5
 10
249.107
 20
40.918
 30
0.0
 11
250.832
 21
40.918
 31
0.0
  0
LINE
  8
0
 62
     5
 10
250.832
 20
40.918
 30
0.0
 11
250.832
 21
39.7164
 31
0.0
  0
LINE
  8
0
 62
     5
 10
250.832
 20
39.7164
 30
0.0
 11
254.131
 21
39.7164
 31
0.0
  0
LINE
  8
0
 62
     5
 10
254.131
 20
39.7164
 30
0.0
 11
254.131
 21
40.918
 31
0.0
  0
LINE
  8
0
 62
     5
 10
254.131
 20
40.918
 30
0.0
 11
255.856
 21
40.918
 31
0.0
  0
LINE
  8
0
 62
     5
 10
255.856
 20
40.918
 30
0.0
 11
255.856
 21
45.387
 31
0.0
  0
LINE
  8
0
 62
     5
 10
255.856
 20
45.387
 30
0.0
 11
257.382
 21
45.387
 31
0.0
  0
LINE
  8
0
 62
     5
 10
257.382
 20
45.387
 30
0.0
 11
257.382
 21
40.6866
 31
0.0
  0
LINE
  8
0
 62
     5
 10
257.382
 20
40.6866
 30
0.0
 11
271.381
 21
40.6866
 31
0.0
  0
LINE
  8
0
 62
     5
 10
271.381
 20
40.6866
 30
0.0
 11
271.381
 21
45.387
 31
0.0
  0
LINE
  8
0
 62
     5
 10
271.381
 20
45.387
 30
0.0
 11
272.907
 21
45.387
 31
0.0
  0
LINE
  8
0
 62
     5
 10
272.907
 20
45.387
 30
0.0
 11
272.907
 21
40.918
 31
0.0
  0
LINE
  8
0
 62
     5
 10
272.907
 20
40.918
 30
0.0
 11
274.632
 21
40.918
 31
0.0
  0
LINE
  8
0
 62
     5
 10
274.632
 20
40.918
 30
0.0
 11
274.632
 21
39.7164
 31
0.0
  0
LINE
  8
0
 62
     5
 10
274.632
 20
39.7164
 30
0.0
 11
277.931
 21
39.7164
 31
0.0
  0
LINE
  8
0
 62
     5
 10
277.931
 20
39.7164
 30
0.0
 11
277.931
 21
40.918
 31
0.0
  0
LINE
  8
0
 62
     5
 10
277.931
 20
40.918
 30
0.0
 11
279.656
 21
40.918
 31
0.0
  0
LINE
  8
0
 62
     5
 10
279.656
 20
40.918
 30
0.0
 11
279.656
 21
47.1868
 31
0.0
  0
LINE
  8
0
 62
     5
 10
279.656
 20
47.1868
 30
0.0
 11
280.482
 21
47.1868
 31
0.0
  0
LINE
  8
0
 62
     5
 10
280.482
 20
47.1868
 30
0.0
 11
280.482
 21
49.9868
 31
0.0
  0
LINE
  8
0
 62
     5
 10
280.482
 20
49.9868
 30
0.0
 11
279.656
 21
49.9868
 31
0.0
  0
LINE
  8
0
 62
     5
 10
279.656
 20
49.9868
 30
0.0
 11
279.656
 21
53.2172
 31
0.0
  0
LINE
  8
0
 62
     5
 10
279.656
 20
53.2172
 30
0.0
 11
272.907
 21
53.2172
 31
0.0
  0
LINE
  8
0
 62
     5
 10
272.907
 20
53.2172
 30
0.0
 11
272.907
 21
49.9868
 31
0.0
  0
LINE
  8
0
 62
     5
 10
272.907
 20
49.9868
 30
0.0
 11
271.381
 21
49.9868
 31
0.0
  0
LINE
  8
0
 62
     5
 10
271.381
 20
49.9868
 30
0.0
 11
271.381
 21
54.6876
 31
0.0
  0
LINE
  8
0
 62
     5
 10
271.381
 20
54.6876
 30
0.0
 11
257.382
 21
54.6876
 31
0.0
  0
LINE
  8
0
 62
     5
 10
9.73169
 20
54.6876
 30
0.0
 11
23.7312
 21
54.6876
 31
0.0
  0
LINE
  8
0
 62
     5
 10
23.7312
 20
54.6876
 30
0.0
 11
23.7312
 21
40.6866
 31
0.0
  0
LINE
  8
0
 62
     5
 10
23.7312
 20
40.6866
 30
0.0
 11
9.73169
 21
40.6866
 31
0.0
  0
LINE
  8
0
 62
     5
 10
9.73169
 20
40.6866
 30
0.0
 11
9.73169
 21
54.6876
 31
0.0
  0
LINE
  8
0
 62
     5
 10
35.9255
 20
54.6876
 30
0.0
 11
49.9251
 21
54.6876
 31
0.0
  0
LINE
  8
0
 62
     5
 10
49.9251
 20
54.6876
 30
0.0
 11
49.9251
 21
40.6866
 31
0.0
  0
LINE
  8
0
 62
     5
 10
49.9251
 20
40.6866
 30
0.0
 11
35.9255
 21
40.6866
 31
0.0
  0
LINE
  8
0
 62
     5
 10
35.9255
 20
40.6866
 30
0.0
 11
35.9255
 21
54.6876
 31
0.0
  0
LINE
  8
0
 62
     5
 10
54.9755
 20
54.6876
 30
0.0
 11
68.9751
 21
54.6876
 31
0.0
  0
LINE
  8
0
 62
     5
 10
68.9751
 20
54.6876
 30
0.0
 11
68.9751
 21
40.6866
 31
0.0
  0
LINE
  8
0
 62
     5
 10
68.9751
 20
40.6866
 30
0.0
 11
54.9755
 21
40.6866
 31
0.0
  0
LINE
  8
0
 62
     5
 10
54.9755
 20
40.6866
 30
0.0
 11
54.9755
 21
54.6876
 31
0.0
  0
LINE
  8
0
 62
     5
 10
74.0255
 20
54.6876
 30
0.0
 11
88.0251
 21
54.6876
 31
0.0
  0
LINE
  8
0
 62
     5
 10
88.0251
 20
54.6876
 30
0.0
 11
88.0251
 21
40.6866
 31
0.0
  0
LINE
  8
0
 62
     5
 10
88.0251
 20
40.6866
 30
0.0
 11
74.0255
 21
40.6866
 31
0.0
  0
LINE
  8
0
 62
     5
 10
74.0255
 20
40.6866
 30
0.0
 11
74.0255
 21
54.6876
 31
0.0
  0
LINE
  8
0
 62
     5
 10
93.0755
 20
54.6876
 30
0.0
 11
107.075
 21
54.6876
 31
0.0
  0
LINE
  8
0
 62
     5
 10
107.075
 20
54.6876
 30
0.0
 11
107.075
 21
40.6866
 31
0.0
  0
LINE
  8
0
 62
     5
 10
107.075
 20
40.6866
 30
0.0
 11
93.0755
 21
40.6866
 31
0.0
  0
LINE
  8
0
 62
     5
 10
93.0755
 20
40.6866
 30
0.0
 11
93.0755
 21
54.6876
 31
0.0
  0
LINE
  8
0
 62
     5
 10
112.125
 20
54.6876
 30
0.0
 11
126.125
 21
54.6876
 31
0.0
  0
LINE
  8
0
 62
     5
 10
126.125
 20
54.6876
 30
0.0
 11
126.125
 21
40.6866
 31
0.0
  0
LINE
  8
0
 62
     5
 10
126.125
 20
40.6866
 30
0.0
 11
112.125
 21
40.6866
 31
0.0
  0
LINE
  8
0
 62
     5
 10
112.125
 20
40.6866
 30
0.0
 11
112.125
 21
54.6876
 31
0.0
  0
LINE
  8
0
 62
     5
 10
131.175
 20
54.6876
 30
0.0
 11
145.175
 21
54.6876
 31
0.0
  0
LINE
  8
0
 62
     5
 10
145.175
 20
54.6876
 30
0.0
 11
145.175
 21
40.6866
 31
0.0
  0
LINE
  8
0
 62
     5
 10
145.175
 20
40.6866
 30
0.0
 11
131.175
 21
40.6866
 31
0.0
  0
LINE
  8
0
 62
     5
 10
131.175
 20
40.6866
 30
0.0
 11
131.175
 21
54.6876
 31
0.0
  0
LINE
  8
0
 62
     5
 10
150.225
 20
54.6876
 30
0.0
 11
164.225
 21
54.6876
 31
0.0
  0
LINE
  8
0
 62
     5
 10
164.225
 20
54.6876
 30
0.0
 11
164.225
 21
40.6866
 31
0.0
  0
LINE
  8
0
 62
     5
 10
164.225
 20
40.6866
 30
0.0
 11
150.225
 21
40.6866
 31
0.0
  0
LINE
  8
0
 62
     5
 10
150.225
 20
40.6866
 30
0.0
 11
150.225
 21
54.6876
 31
0.0
  0
LINE
  8
0
 62
     5
 10
169.275
 20
54.6876
 30
0.0
 11
183.275
 21
54.6876
 31
0.0
  0
LINE
  8
0
 62
     5
 10
183.275
 20
54.6876
 30
0.0
 11
183.275
 21
40.6866
 31
0.0
  0
LINE
  8
0
 62
     5
 10
183.275
 20
40.6866
 30
0.0
 11
169.275
 21
40.6866
 31
0.0
  0
LINE
  8
0
 62
     5
 10
169.275
 20
40.6866
 30
0.0
 11
169.275
 21
54.6876
 31
0.0
  0
LINE
  8
0
 62
     5
 10
188.325
 20
54.6876
 30
0.0
 11
202.325
 21
54.6876
 31
0.0
  0
LINE
  8
0
 62
     5
 10
202.325
 20
54.6876
 30
0.0
 11
202.325
 21
40.6866
 31
0.0
  0
LINE
  8
0
 62
     5
 10
202.325
 20
40.6866
 30
0.0
 11
188.325
 21
40.6866
 31
0.0
  0
LINE
  8
0
 62
     5
 10
188.325
 20
40.6866
 30
0.0
 11
188.325
 21
54.6876
 31
0.0
  0
LINE
  8
0
 62
     5
 10
207.375
 20
54.6876
 30
0.0
 11
221.375
 21
54.6876
 31
0.0
  0
LINE
  8
0
 62
     5
 10
221.375
 20
54.6876
 30
0.0
 11
221.375
 21
40.6866
 31
0.0
  0
LINE
  8
0
 62
     5
 10
221.375
 20
40.6866
 30
0.0
 11
207.375
 21
40.6866
 31
0.0
  0
LINE
  8
0
 62
     5
 10
207.375
 20
40.6866
 30
0.0
 11
207.375
 21
54.6876
 31
0.0
  0
LINE
  8
0
 62
     5
 10
226.425
 20
54.6876
 30
0.0
 11
240.425
 21
54.6876
 31
0.0
  0
LINE
  8
0
 62
     5
 10
240.425
 20
54.6876
 30
0.0
 11
240.425
 21
40.6866
 31
0.0
  0
LINE
  8
0
 62
     5
 10
240.425
 20
40.6866
 30
0.0
 11
226.425
 21
40.6866
 31
0.0
  0
LINE
  8
0
 62
     5
 10
226.425
 20
40.6866
 30
0.0
 11
226.425
 21
54.6876
 31
0.0
  0
LINE
  8
0
 62
     5
 10
7.35044
 20
73.7376
 30
0.0
 11
21.3499
 21
73.7376
 31
0.0
  0
LINE
  8
0
 62
     5
 10
21.3499
 20
73.7376
 30
0.0
 11
21.3499
 21
59.7366
 31
0.0
  0
LINE
  8
0
 62
     5
 10
21.3499
 20
59.7366
 30
0.0
 11
7.35044
 21
59.7366
 31
0.0
  0
LINE
  8
0
 62
     5
 10
7.35044
 20
59.7366
 30
0.0
 11
7.35044
 21
73.7376
 31
0.0
  0
LINE
  8
0
 62
     5
 10
31.1629
 20
73.7376
 30
0.0
 11
45.1637
 21
73.7376
 31
0.0
  0
LINE
  8
0
 62
     5
 10
45.1637
 20
73.7376
 30
0.0
 11
45.1637
 21
59.7366
 31
0.0
  0
LINE
  8
0
 62
     5
 10
45.1637
 20
59.7366
 30
0.0
 11
31.1629
 21
59.7366
 31
0.0
  0
LINE
  8
0
 62
     5
 10
31.1629
 20
59.7366
 30
0.0
 11
31.1629
 21
73.7376
 31
0.0
  0
LINE
  8
0
 62
     5
 10
50.213
 20
73.7376
 30
0.0
 11
64.2137
 21
73.7376
 31
0.0
  0
LINE
  8
0
 62
     5
 10
64.2137
 20
73.7376
 30
0.0
 11
64.2137
 21
59.7366
 31
0.0
  0
LINE
  8
0
 62
     5
 10
64.2137
 20
59.7366
 30
0.0
 11
50.213
 21
59.7366
 31
0.0
  0
LINE
  8
0
 62
     5
 10
50.213
 20
59.7366
 30
0.0
 11
50.213
 21
73.7376
 31
0.0
  0
LINE
  8
0
 62
     5
 10
69.263
 20
73.7376
 30
0.0
 11
83.2637
 21
73.7376
 31
0.0
  0
LINE
  8
0
 62
     5
 10
83.2637
 20
73.7376
 30
0.0
 11
83.2637
 21
59.7366
 31
0.0
  0
LINE
  8
0
 62
     5
 10
83.2637
 20
59.7366
 30
0.0
 11
69.263
 21
59.7366
 31
0.0
  0
LINE
  8
0
 62
     5
 10
69.263
 20
59.7366
 30
0.0
 11
69.263
 21
73.7376
 31
0.0
  0
LINE
  8
0
 62
     5
 10
88.313
 20
73.7376
 30
0.0
 11
102.314
 21
73.7376
 31
0.0
  0
LINE
  8
0
 62
     5
 10
102.314
 20
73.7376
 30
0.0
 11
102.314
 21
59.7366
 31
0.0
  0
LINE
  8
0
 62
     5
 10
102.314
 20
59.7366
 30
0.0
 11
88.313
 21
59.7366
 31
0.0
  0
LINE
  8
0
 62
     5
 10
88.313
 20
59.7366
 30
0.0
 11
88.313
 21
73.7376
 31
0.0
  0
LINE
  8
0
 62
     5
 10
107.363
 20
73.7376
 30
0.0
 11
121.364
 21
73.7376
 31
0.0
  0
LINE
  8
0
 62
     5
 10
121.364
 20
73.7376
 30
0.0
 11
121.364
 21
59.7366
 31
0.0
  0
LINE
  8
0
 62
     5
 10
121.364
 20
59.7366
 30
0.0
 11
107.363
 21
59.7366
 31
0.0
  0
LINE
  8
0
 62
     5
 10
107.363
 20
59.7366
 30
0.0
 11
107.363
 21
73.7376
 31
0.0
  0
LINE
  8
0
 62
     5
 10
126.413
 20
73.7376
 30
0.0
 11
140.414
 21
73.7376
 31
0.0
  0
LINE
  8
0
 62
     5
 10
140.414
 20
73.7376
 30
0.0
 11
140.414
 21
59.7366
 31
0.0
  0
LINE
  8
0
 62
     5
 10
140.414
 20
59.7366
 30
0.0
 11
126.413
 21
59.7366
 31
0.0
  0
LINE
  8
0
 62
     5
 10
126.413
 20
59.7366
 30
0.0
 11
126.413
 21
73.7376
 31
0.0
  0
LINE
  8
0
 62
     5
 10
145.463
 20
73.7376
 30
0.0
 11
159.464
 21
73.7376
 31
0.0
  0
LINE
  8
0
 62
     5
 10
159.464
 20
73.7376
 30
0.0
 11
159.464
 21
59.7366
 31
0.0
  0
LINE
  8
0
 62
     5
 10
159.464
 20
59.7366
 30
0.0
 11
145.463
 21
59.7366
 31
0.0
  0
LINE
  8
0
 62
     5
 10
145.463
 20
59.7366
 30
0.0
 11
145.463
 21
73.7376
 31
0.0
  0
LINE
  8
0
 62
     5
 10
164.513
 20
73.7376
 30
0.0
 11
178.514
 21
73.7376
 31
0.0
  0
LINE
  8
0
 62
     5
 10
178.514
 20
73.7376
 30
0.0
 11
178.514
 21
59.7366
 31
0.0
  0
LINE
  8
0
 62
     5
 10
178.514
 20
59.7366
 30
0.0
 11
164.513
 21
59.7366
 31
0.0
  0
LINE
  8
0
 62
     5
 10
164.513
 20
59.7366
 30
0.0
 11
164.513
 21
73.7376
 31
0.0
  0
LINE
  8
0
 62
     5
 10
183.563
 20
73.7376
 30
0.0
 11
197.564
 21
73.7376
 31
0.0
  0
LINE
  8
0
 62
     5
 10
197.564
 20
73.7376
 30
0.0
 11
197.564
 21
59.7366
 31
0.0
  0
LINE
  8
0
 62
     5
 10
197.564
 20
59.7366
 30
0.0
 11
183.563
 21
59.7366
 31
0.0
  0
LINE
  8
0
 62
     5
 10
183.563
 20
59.7366
 30
0.0
 11
183.563
 21
73.7376
 31
0.0
  0
LINE
  8
0
 62
     5
 10
202.613
 20
73.7376
 30
0.0
 11
216.614
 21
73.7376
 31
0.0
  0
LINE
  8
0
 62
     5
 10
216.614
 20
73.7376
 30
0.0
 11
216.614
 21
59.7366
 31
0.0
  0
LINE
  8
0
 62
     5
 10
216.614
 20
59.7366
 30
0.0
 11
202.613
 21
59.7366
 31
0.0
  0
LINE
  8
0
 62
     5
 10
202.613
 20
59.7366
 30
0.0
 11
202.613
 21
73.7376
 31
0.0
  0
LINE
  8
0
 62
     5
 10
221.663
 20
73.7376
 30
0.0
 11
235.664
 21
73.7376
 31
0.0
  0
LINE
  8
0
 62
     5
 10
235.664
 20
73.7376
 30
0.0
 11
235.664
 21
59.7366
 31
0.0
  0
LINE
  8
0
 62
     5
 10
235.664
 20
59.7366
 30
0.0
 11
221.663
 21
59.7366
 31
0.0
  0
LINE
  8
0
 62
     5
 10
221.663
 20
59.7366
 30
0.0
 11
221.663
 21
73.7376
 31
0.0
  0
LINE
  8
0
 62
     5
 10
240.713
 20
73.7376
 30
0.0
 11
254.713
 21
73.7376
 31
0.0
  0
LINE
  8
0
 62
     5
 10
254.713
 20
73.7376
 30
0.0
 11
254.713
 21
59.7366
 31
0.0
  0
LINE
  8
0
 62
     5
 10
254.713
 20
59.7366
 30
0.0
 11
240.713
 21
59.7366
 31
0.0
  0
LINE
  8
0
 62
     5
 10
240.713
 20
59.7366
 30
0.0
 11
240.713
 21
73.7376
 31
0.0
  0
LINE
  8
0
 62
     5
 10
264.525
 20
73.7376
 30
0.0
 11
278.525
 21
73.7376
 31
0.0
  0
LINE
  8
0
 62
     5
 10
278.525
 20
73.7376
 30
0.0
 11
278.525
 21
59.7366
 31
0.0
  0
LINE
  8
0
 62
     5
 10
278.525
 20
59.7366
 30
0.0
 11
264.525
 21
59.7366
 31
0.0
  0
LINE
  8
0
 62
     5
 10
264.525
 20
59.7366
 30
0.0
 11
264.525
 21
73.7376
 31
0.0
  0
LINE
  8
0
 62
     5
 10
2.58796
 20
92.7876
 30
0.0
 11
16.5888
 21
92.7876
 31
0.0
  0
LINE
  8
0
 62
     5
 10
16.5888
 20
92.7876
 30
0.0
 11
16.5888
 21
78.7866
 31
0.0
  0
LINE
  8
0
 62
     5
 10
16.5888
 20
78.7866
 30
0.0
 11
2.58796
 21
78.7866
 31
0.0
  0
LINE
  8
0
 62
     5
 10
2.58796
 20
78.7866
 30
0.0
 11
2.58796
 21
92.7876
 31
0.0
  0
LINE
  8
0
 62
     5
 10
21.6379
 20
92.7876
 30
0.0
 11
35.6387
 21
92.7876
 31
0.0
  0
LINE
  8
0
 62
     5
 10
35.6387
 20
92.7876
 30
0.0
 11
35.6387
 21
78.7866
 31
0.0
  0
LINE
  8
0
 62
     5
 10
35.6387
 20
78.7866
 30
0.0
 11
21.6379
 21
78.7866
 31
0.0
  0
LINE
  8
0
 62
     5
 10
21.6379
 20
78.7866
 30
0.0
 11
21.6379
 21
92.7876
 31
0.0
  0
LINE
  8
0
 62
     5
 10
40.688
 20
92.7876
 30
0.0
 11
54.6887
 21
92.7876
 31
0.0
  0
LINE
  8
0
 62
     5
 10
54.6887
 20
92.7876
 30
0.0
 11
54.6887
 21
78.7866
 31
0.0
  0
LINE
  8
0
 62
     5
 10
54.6887
 20
78.7866
 30
0.0
 11
40.688
 21
78.7866
 31
0.0
  0
LINE
  8
0
 62
     5
 10
40.688
 20
78.7866
 30
0.0
 11
40.688
 21
92.7876
 31
0.0
  0
LINE
  8
0
 62
     5
 10
59.738
 20
92.7876
 30
0.0
 11
73.7387
 21
92.7876
 31
0.0
  0
LINE
  8
0
 62
     5
 10
73.7387
 20
92.7876
 30
0.0
 11
73.7387
 21
78.7866
 31
0.0
  0
LINE
  8
0
 62
     5
 10
73.7387
 20
78.7866
 30
0.0
 11
59.738
 21
78.7866
 31
0.0
  0
LINE
  8
0
 62
     5
 10
59.738
 20
78.7866
 30
0.0
 11
59.738
 21
92.7876
 31
0.0
  0
LINE
  8
0
 62
     5
 10
78.788
 20
92.7876
 30
0.0
 11
92.7887
 21
92.7876
 31
0.0
  0
LINE
  8
0
 62
     5
 10
92.7887
 20
92.7876
 30
0.0
 11
92.7887
 21
78.7866
 31
0.0
  0
LINE
  8
0
 62
     5
 10
92.7887
 20
78.7866
 30
0.0
 11
78.788
 21
78.7866
 31
0.0
  0
LINE
  8
0
 62
     5
 10
78.788
 20
78.7866
 30
0.0
 11
78.788
 21
92.7876
 31
0.0
  0
LINE
  8
0
 62
     5
 10
97.838
 20
92.7876
 30
0.0
 11
111.838
 21
92.7876
 31
0.0
  0
LINE
  8
0
 62
     5
 10
111.838
 20
92.7876
 30
0.0
 11
111.838
 21
78.7866
 31
0.0
  0
LINE
  8
0
 62
     5
 10
111.838
 20
78.7866
 30
0.0
 11
97.838
 21
78.7866
 31
0.0
  0
LINE
  8
0
 62
     5
 10
97.838
 20
78.7866
 30
0.0
 11
97.838
 21
92.7876
 31
0.0
  0
LINE
  8
0
 62
     5
 10
116.888
 20
92.7876
 30
0.0
 11
130.889
 21
92.7876
 31
0.0
  0
LINE
  8
0
 62
     5
 10
130.889
 20
92.7876
 30
0.0
 11
130.889
 21
78.7866
 31
0.0
  0
LINE
  8
0
 62
     5
 10
130.889
 20
78.7866
 30
0.0
 11
116.888
 21
78.7866
 31
0.0
  0
LINE
  8
0
 62
     5
 10
116.888
 20
78.7866
 30
0.0
 11
116.888
 21
92.7876
 31
0.0
  0
LINE
  8
0
 62
     5
 10
135.938
 20
92.7876
 30
0.0
 11
149.939
 21
92.7876
 31
0.0
  0
LINE
  8
0
 62
     5
 10
149.939
 20
92.7876
 30
0.0
 11
149.939
 21
78.7866
 31
0.0
  0
LINE
  8
0
 62
     5
 10
149.939
 20
78.7866
 30
0.0
 11
135.938
 21
78.7866
 31
0.0
  0
LINE
  8
0
 62
     5
 10
135.938
 20
78.7866
 30
0.0
 11
135.938
 21
92.7876
 31
0.0
  0
LINE
  8
0
 62
     5
 10
154.988
 20
92.7876
 30
0.0
 11
168.989
 21
92.7876
 31
0.0
  0
LINE
  8
0
 62
     5
 10
168.989
 20
92.7876
 30
0.0
 11
168.989
 21
78.7866
 31
0.0
  0
LINE
  8
0
 62
     5
 10
168.989
 20
78.7866
 30
0.0
 11
154.988
 21
78.7866
 31
0.0
  0
LINE
  8
0
 62
     5
 10
154.988
 20
78.7866
 30
0.0
 11
154.988
 21
92.7876
 31
0.0
  0
LINE
  8
0
 62
     5
 10
174.038
 20
92.7876
 30
0.0
 11
188.039
 21
92.7876
 31
0.0
  0
LINE
  8
0
 62
     5
 10
188.039
 20
92.7876
 30
0.0
 11
188.039
 21
78.7866
 31
0.0
  0
LINE
  8
0
 62
     5
 10
188.039
 20
78.7866
 30
0.0
 11
174.038
 21
78.7866
 31
0.0
  0
LINE
  8
0
 62
     5
 10
174.038
 20
78.7866
 30
0.0
 11
174.038
 21
92.7876
 31
0.0
  0
LINE
  8
0
 62
     5
 10
193.088
 20
92.7876
 30
0.0
 11
207.089
 21
92.7876
 31
0.0
  0
LINE
  8
0
 62
     5
 10
207.089
 20
92.7876
 30
0.0
 11
207.089
 21
78.7866
 31
0.0
  0
LINE
  8
0
 62
     5
 10
207.089
 20
78.7866
 30
0.0
 11
193.088
 21
78.7866
 31
0.0
  0
LINE
  8
0
 62
     5
 10
193.088
 20
78.7866
 30
0.0
 11
193.088
 21
92.7876
 31
0.0
  0
LINE
  8
0
 62
     5
 10
212.138
 20
92.7876
 30
0.0
 11
226.139
 21
92.7876
 31
0.0
  0
LINE
  8
0
 62
     5
 10
226.139
 20
92.7876
 30
0.0
 11
226.139
 21
78.7866
 31
0.0
  0
LINE
  8
0
 62
     5
 10
226.139
 20
78.7866
 30
0.0
 11
212.138
 21
78.7866
 31
0.0
  0
LINE
  8
0
 62
     5
 10
212.138
 20
78.7866
 30
0.0
 11
212.138
 21
92.7876
 31
0.0
  0
LINE
  8
0
 62
     5
 10
231.188
 20
92.7876
 30
0.0
 11
245.189
 21
92.7876
 31
0.0
  0
LINE
  8
0
 62
     5
 10
245.189
 20
92.7876
 30
0.0
 11
245.189
 21
78.7866
 31
0.0
  0
LINE
  8
0
 62
     5
 10
245.189
 20
78.7866
 30
0.0
 11
231.188
 21
78.7866
 31
0.0
  0
LINE
  8
0
 62
     5
 10
231.188
 20
78.7866
 30
0.0
 11
231.188
 21
92.7876
 31
0.0
  0
LINE
  8
0
 62
     5
 10
250.238
 20
92.7876
 30
0.0
 11
264.239
 21
92.7876
 31
0.0
  0
LINE
  8
0
 62
     5
 10
264.239
 20
92.7876
 30
0.0
 11
264.239
 21
78.7866
 31
0.0
  0
LINE
  8
0
 62
     5
 10
264.239
 20
78.7866
 30
0.0
 11
250.238
 21
78.7866
 31
0.0
  0
LINE
  8
0
 62
     5
 10
250.238
 20
78.7866
 30
0.0
 11
250.238
 21
92.7876
 31
0.0
  0
LINE
  8
0
 62
     5
 10
269.288
 20
92.7876
 30
0.0
 11
283.289
 21
92.7876
 31
0.0
  0
LINE
  8
0
 62
     5
 10
283.289
 20
92.7876
 30
0.0
 11
283.289
 21
78.7866
 31
0.0
  0
LINE
  8
0
 62
     5
 10
283.289
 20
78.7866
 30
0.0
 11
269.288
 21
78.7866
 31
0.0
  0
LINE
  8
0
 62
     5
 10
269.288
 20
78.7866
 30
0.0
 11
269.288
 21
92.7876
 31
0.0
  0
ENDSEC
  0
EOF
