<?xml version="1.0"?>
<!-- Generated by SVGo -->
<svg width="295.752mm" height="105.252mm"
     viewBox="0.000 0.000 295.752 105.252"
     xmlns="http://www.w3.org/2000/svg" 
     xmlns:xlink="http://www.w3.org/1999/xlink">
<polygon points="290.752,100.251 5.001,100.251 5.001,5.001 290.752,5.001" style="fill:none;stroke-width:0.010000mm;stroke:blue"/>
<polygon points="140.876,83.726 140.876,88.426 94.101,88.426 94.101,85.196 87.351,85.196 87.351,88.426 86.526,88.426 86.526,91.226 87.351,91.226 87.351,97.495 89.076,97.495 89.076,98.696 92.376,98.696 92.376,97.495 94.101,97.495 94.101,93.025 140.876,93.025 140.876,97.726 154.876,97.726 154.876,93.025 201.651,93.025 201.651,97.495 203.376,97.495 203.376,98.696 206.676,98.696 206.676,97.495 208.401,97.495 208.401,91.226 209.226,91.226 209.226,88.426 208.401,88.426 208.401,85.196 201.651,85.196 201.651,88.426 154.876,88.426 154.876,83.726" style="fill:none;stroke-width:0.010000mm;stroke:blue"/>
<polygon points="12.288,83.726 12.288,97.726 26.288,97.726 26.288,83.726" style="fill:none;stroke-width:0.010000mm;stroke:blue"/>
<polygon points="36.101,83.726 36.101,97.726 50.101,97.726 50.101,83.726" style="fill:none;stroke-width:0.010000mm;stroke:blue"/>
<polygon points="59.913,83.726 59.913,97.726 73.913,97.726 73.913,83.726" style="fill:none;stroke-width:0.010000mm;stroke:blue"/>
<polygon points="221.838,83.726 221.838,97.726 235.838,97.726 235.838,83.726" style="fill:none;stroke-width:0.010000mm;stroke:blue"/>
<polygon points="245.651,83.726 245.651,97.726 259.650,97.726 259.650,83.726" style="fill:none;stroke-width:0.010000mm;stroke:blue"/>
<polygon points="269.463,83.726 269.463,97.726 283.463,97.726 283.463,83.726" style="fill:none;stroke-width:0.010000mm;stroke:blue"/>
<polygon points="19.432,64.676 19.432,69.376 17.907,69.376 17.907,66.146 11.157,66.146 11.157,69.376 10.332,69.376 10.332,72.176 11.157,72.176 11.157,78.446 12.882,78.446 12.882,79.646 16.182,79.646 16.182,78.446 17.907,78.446 17.907,73.976 19.432,73.976 19.432,78.676 33.432,78.676 33.432,73.976 34.957,73.976 34.957,78.446 36.682,78.446 36.682,79.646 39.982,79.646 39.982,78.446 41.707,78.446 41.707,72.176 42.532,72.176 42.532,69.376 41.707,69.376 41.707,66.146 34.957,66.146 34.957,69.376 33.432,69.376 33.432,64.676" style="fill:none;stroke-width:0.010000mm;stroke:blue"/>
<polygon points="50.388,64.676 50.388,78.676 64.388,78.676 64.388,64.676" style="fill:none;stroke-width:0.010000mm;stroke:blue"/>
<polygon points="69.438,64.676 69.438,78.676 83.438,78.676 83.438,64.676" style="fill:none;stroke-width:0.010000mm;stroke:blue"/>
<polygon points="88.488,64.676 88.488,78.676 102.488,78.676 102.488,64.676" style="fill:none;stroke-width:0.010000mm;stroke:blue"/>
<polygon points="107.538,64.676 107.538,78.676 121.538,78.676 121.538,64.676" style="fill:none;stroke-width:0.010000mm;stroke:blue"/>
<polygon points="126.588,64.676 126.588,78.676 140.588,78.676 140.588,64.676" style="fill:none;stroke-width:0.010000mm;stroke:blue"/>
<polygon points="145.638,64.676 145.638,78.676 159.638,78.676 159.638,64.676" style="fill:none;stroke-width:0.010000mm;stroke:blue"/>
<polygon points="164.688,64.676 164.688,78.676 178.688,78.676 178.688,64.676" style="fill:none;stroke-width:0.010000mm;stroke:blue"/>
<polygon points="183.738,64.676 183.738,78.676 197.738,78.676 197.738,64.676" style="fill:none;stroke-width:0.010000mm;stroke:blue"/>
<polygon points="202.788,64.676 202.788,78.676 216.788,78.676 216.788,64.676" style="fill:none;stroke-width:0.010000mm;stroke:blue"/>
<polygon points="221.838,64.676 221.838,78.676 235.838,78.676 235.838,64.676" style="fill:none;stroke-width:0.010000mm;stroke:blue"/>
<polygon points="248.032,64.676 248.032,78.676 262.032,78.676 262.032,64.676" style="fill:none;stroke-width:0.010000mm;stroke:blue"/>
<polygon points="274.226,64.676 274.226,78.676 288.226,78.676 288.226,64.676" style="fill:none;stroke-width:0.010000mm;stroke:blue"/>
<polygon points="262.319,45.626 262.319,50.326 260.794,50.326 260.794,47.096 254.044,47.096 254.044,50.326 253.219,50.326 253.219,53.126 254.044,53.126 254.044,59.395 255.769,59.395 255.769,60.596 259.068,60.596 259.068,59.395 260.794,59.395 260.794,54.926 262.319,54.926 262.319,59.626 276.319,59.626 276.319,54.926 277.844,54.926 277.844,59.395 279.569,59.395 279.569,60.596 282.869,60.596 282.869,59.395 284.594,59.395 284.594,53.126 285.419,53.126 285.419,50.326 284.594,50.326 284.594,47.096 277.844,47.096 277.844,50.326 276.319,50.326 276.319,45.626" style="fill:none;stroke-width:0.010000mm;stroke:blue"/>
<polygon points="14.669,45.626 14.669,59.626 28.669,59.626 28.669,45.626" style="fill:none;stroke-width:0.010000mm;stroke:blue"/>
<polygon points="40.863,45.626 40.863,59.626 54.863,59.626 54.863,45.626" style="fill:none;stroke-width:0.010000mm;stroke:blue"/>
<polygon points="59.913,45.626 59.913,59.626 73.913,59.626 73.913,45.626" style="fill:none;stroke-width:0.010000mm;stroke:blue"/>
<polygon points="78.963,45.626 78.963,59.626 92.963,59.626 92.963,45.626" style="fill:none;stroke-width:0.010000mm;stroke:blue"/>
<polygon points="98.013,45.626 98.013,59.626 112.013,59.626 112.013,45.626" style="fill:none;stroke-width:0.010000mm;stroke:blue"/>
<polygon points="117.063,45.626 117.063,59.626 131.063,59.626 131.063,45.626" style="fill:none;stroke-width:0.010000mm;stroke:blue"/>
<polygon points="136.113,45.626 136.113,59.626 150.113,59.626 150.113,45.626" style="fill:none;stroke-width:0.010000mm;stroke:blue"/>
<polygon points="155.163,45.626 155.163,59.626 169.163,59.626 169.163,45.626" style="fill:none;stroke-width:0.010000mm;stroke:blue"/>
<polygon points="174.213,45.626 174.213,59.626 188.213,59.626 188.213,45.626" style="fill:none;stroke-width:0.010000mm;stroke:blue"/>
<polygon points="193.263,45.626 193.263,59.626 207.263,59.626 207.263,45.626" style="fill:none;stroke-width:0.010000mm;stroke:blue"/>
<polygon points="212.313,45.626 212.313,59.626 226.313,59.626 226.313,45.626" style="fill:none;stroke-width:0.010000mm;stroke:blue"/>
<polygon points="231.363,45.626 231.363,59.626 245.363,59.626 245.363,45.626" style="fill:none;stroke-width:0.010000mm;stroke:blue"/>
<polygon points="12.288,26.576 12.288,40.576 26.288,40.576 26.288,26.576" style="fill:none;stroke-width:0.010000mm;stroke:blue"/>
<polygon points="36.101,26.576 36.101,40.576 50.101,40.576 50.101,26.576" style="fill:none;stroke-width:0.010000mm;stroke:blue"/>
<polygon points="55.151,26.576 55.151,40.576 69.151,40.576 69.151,26.576" style="fill:none;stroke-width:0.010000mm;stroke:blue"/>
<polygon points="74.201,26.576 74.201,40.576 88.201,40.576 88.201,26.576" style="fill:none;stroke-width:0.010000mm;stroke:blue"/>
<polygon points="93.251,26.576 93.251,40.576 107.251,40.576 107.251,26.576" style="fill:none;stroke-width:0.010000mm;stroke:blue"/>
<polygon points="112.301,26.576 112.301,40.576 126.301,40.576 126.301,26.576" style="fill:none;stroke-width:0.010000mm;stroke:blue"/>
<polygon points="131.351,26.576 131.351,40.576 145.351,40.576 145.351,26.576" style="fill:none;stroke-width:0.010000mm;stroke:blue"/>
<polygon points="150.401,26.576 150.401,40.576 164.401,40.576 164.401,26.576" style="fill:none;stroke-width:0.010000mm;stroke:blue"/>
<polygon points="169.451,26.576 169.451,40.576 183.451,40.576 183.451,26.576" style="fill:none;stroke-width:0.010000mm;stroke:blue"/>
<polygon points="188.501,26.576 188.501,40.576 202.501,40.576 202.501,26.576" style="fill:none;stroke-width:0.010000mm;stroke:blue"/>
<polygon points="207.551,26.576 207.551,40.576 221.551,40.576 221.551,26.576" style="fill:none;stroke-width:0.010000mm;stroke:blue"/>
<polygon points="226.601,26.576 226.601,40.576 240.601,40.576 240.601,26.576" style="fill:none;stroke-width:0.010000mm;stroke:blue"/>
<polygon points="245.651,26.576 245.651,40.576 259.650,40.576 259.650,26.576" style="fill:none;stroke-width:0.010000mm;stroke:blue"/>
<polygon points="269.463,26.576 269.463,40.576 283.463,40.576 283.463,26.576" style="fill:none;stroke-width:0.010000mm;stroke:blue"/>
<polygon points="7.526,7.526 7.526,21.526 21.526,21.526 21.526,7.526" style="fill:none;stroke-width:0.010000mm;stroke:blue"/>
<polygon points="26.576,7.526 26.576,21.526 40.576,21.526 40.576,7.526" style="fill:none;stroke-width:0.010000mm;stroke:blue"/>
<polygon points="45.626,7.526 45.626,21.526 59.626,21.526 59.626,7.526" style="fill:none;stroke-width:0.010000mm;stroke:blue"/>
<polygon points="64.676,7.526 64.676,21.526 78.676,21.526 78.676,7.526" style="fill:none;stroke-width:0.010000mm;stroke:blue"/>
<polygon points="83.726,7.526 83.726,21.526 97.726,21.526 97.726,7.526" style="fill:none;stroke-width:0.010000mm;stroke:blue"/>
<polygon points="102.775,7.526 102.775,21.526 116.775,21.526 116.775,7.526" style="fill:none;stroke-width:0.010000mm;stroke:blue"/>
<polygon points="121.825,7.526 121.825,21.526 135.826,21.526 135.826,7.526" style="fill:none;stroke-width:0.010000mm;stroke:blue"/>
<polygon points="140.876,7.526 140.876,21.526 154.876,21.526 154.876,7.526" style="fill:none;stroke-width:0.010000mm;stroke:blue"/>
<polygon points="159.926,7.526 159.926,21.526 173.926,21.526 173.926,7.526" style="fill:none;stroke-width:0.010000mm;stroke:blue"/>
<polygon points="178.976,7.526 178.976,21.526 192.976,21.526 192.976,7.526" style="fill:none;stroke-width:0.010000mm;stroke:blue"/>
<polygon points="198.026,7.526 198.026,21.526 212.026,21.526 212.026,7.526" style="fill:none;stroke-width:0.010000mm;stroke:blue"/>
<polygon points="217.076,7.526 217.076,21.526 231.076,21.526 231.076,7.526" style="fill:none;stroke-width:0.010000mm;stroke:blue"/>
<polygon points="236.126,7.526 236.126,21.526 250.126,21.526 250.126,7.526" style="fill:none;stroke-width:0.010000mm;stroke:blue"/>
<polygon points="255.176,7.526 255.176,21.526 269.176,21.526 269.176,7.526" style="fill:none;stroke-width:0.010000mm;stroke:blue"/>
<polygon points="274.226,7.526 274.226,21.526 288.226,21.526 288.226,7.526" style="fill:none;stroke-width:0.010000mm;stroke:blue"/>
</svg>
