<?xml version="1.0" encoding="UTF-8" standalone="no"?>
<!DOCTYPE svg PUBLIC "-//W3C//DTD SVG 1.1//EN" "http://www.w3.org/Graphics/SVG/1.1/DTD/svg11.dtd">
<svg width="100%" height="100%" viewBox="0 0 1080 1080" version="1.1" xmlns="http://www.w3.org/2000/svg" xmlns:xlink="http://www.w3.org/1999/xlink" xml:space="preserve" xmlns:serif="http://www.serif.com/" style="fill-rule:evenodd;clip-rule:evenodd;">
    <g transform="matrix(1,0,0,1,114.94,78.0469)">
        <path d="M824.179,284.176L14.176,284.176L14.176,14.176L824.179,14.176L824.179,284.176Z" style="fill:none;fill-rule:nonzero;stroke:rgb(0,0,255);stroke-width:0.08px;"/>
    </g>
    <g transform="matrix(1,0,0,1,114.94,78.0469)">
        <path d="M399.334,237.334L399.334,250.656L266.743,250.656L266.743,241.5L247.609,241.5L247.609,250.656L245.271,250.656L245.271,258.593L247.609,258.593L247.609,276.364L252.499,276.364L252.499,279.768L261.853,279.768L261.853,276.364L266.743,276.364L266.743,263.693L399.334,263.693L399.334,277.019L439.019,277.019L439.019,263.693L571.609,263.693L571.609,276.364L576.499,276.364L576.499,279.768L585.853,279.768L585.853,276.364L590.743,276.364L590.743,258.593L593.082,258.593L593.082,250.656L590.743,250.656L590.743,241.5L571.609,241.5L571.609,250.656L439.019,250.656L439.019,237.334L399.334,237.334Z" style="fill:none;fill-rule:nonzero;stroke:rgb(0,0,255);stroke-width:0.08px;"/>
    </g>
    <g transform="matrix(1,0,0,1,114.94,78.0469)">
        <path d="M34.832,237.334L34.832,277.019L74.517,277.019L74.517,237.334L34.832,237.334Z" style="fill:none;fill-rule:nonzero;stroke:rgb(0,0,255);stroke-width:0.08px;"/>
    </g>
    <g transform="matrix(1,0,0,1,114.94,78.0469)">
        <path d="M102.334,237.334L102.334,277.019L142.019,277.019L142.019,237.334L102.334,237.334Z" style="fill:none;fill-rule:nonzero;stroke:rgb(0,0,255);stroke-width:0.08px;"/>
    </g>
    <g transform="matrix(1,0,0,1,114.94,78.0469)">
        <path d="M169.832,237.334L169.832,277.019L209.517,277.019L209.517,237.334L169.832,237.334Z" style="fill:none;fill-rule:nonzero;stroke:rgb(0,0,255);stroke-width:0.08px;"/>
    </g>
    <g transform="matrix(1,0,0,1,114.94,78.0469)">
        <path d="M628.832,237.334L628.832,277.019L668.517,277.019L668.517,237.334L628.832,237.334Z" style="fill:none;fill-rule:nonzero;stroke:rgb(0,0,255);stroke-width:0.08px;"/>
    </g>
    <g transform="matrix(1,0,0,1,114.94,78.0469)">
        <path d="M696.334,237.334L696.334,277.019L736.016,277.019L736.016,237.334L696.334,237.334Z" style="fill:none;fill-rule:nonzero;stroke:rgb(0,0,255);stroke-width:0.08px;"/>
    </g>
    <g transform="matrix(1,0,0,1,114.94,78.0469)">
        <path d="M763.832,237.334L763.832,277.019L803.517,277.019L803.517,237.334L763.832,237.334Z" style="fill:none;fill-rule:nonzero;stroke:rgb(0,0,255);stroke-width:0.08px;"/>
    </g>
    <g transform="matrix(1,0,0,1,114.94,78.0469)">
        <path d="M55.083,183.334L55.083,196.656L50.76,196.656L50.76,187.5L31.626,187.5L31.626,196.656L29.288,196.656L29.288,204.593L31.626,204.593L31.626,222.367L36.516,222.367L36.516,225.768L45.87,225.768L45.87,222.367L50.76,222.367L50.76,209.696L55.083,209.696L55.083,223.019L94.768,223.019L94.768,209.696L99.091,209.696L99.091,222.367L103.98,222.367L103.98,225.768L113.335,225.768L113.335,222.367L118.225,222.367L118.225,204.593L120.563,204.593L120.563,196.656L118.225,196.656L118.225,187.5L99.091,187.5L99.091,196.656L94.768,196.656L94.768,183.334L55.083,183.334Z" style="fill:none;fill-rule:nonzero;stroke:rgb(0,0,255);stroke-width:0.08px;"/>
    </g>
    <g transform="matrix(1,0,0,1,114.94,78.0469)">
        <path d="M142.832,183.334L142.832,223.019L182.517,223.019L182.517,183.334L142.832,183.334Z" style="fill:none;fill-rule:nonzero;stroke:rgb(0,0,255);stroke-width:0.08px;"/>
    </g>
    <g transform="matrix(1,0,0,1,114.94,78.0469)">
        <path d="M196.832,183.334L196.832,223.019L236.517,223.019L236.517,183.334L196.832,183.334Z" style="fill:none;fill-rule:nonzero;stroke:rgb(0,0,255);stroke-width:0.08px;"/>
    </g>
    <g transform="matrix(1,0,0,1,114.94,78.0469)">
        <path d="M250.832,183.334L250.832,223.019L290.517,223.019L290.517,183.334L250.832,183.334Z" style="fill:none;fill-rule:nonzero;stroke:rgb(0,0,255);stroke-width:0.08px;"/>
    </g>
    <g transform="matrix(1,0,0,1,114.94,78.0469)">
        <path d="M304.832,183.334L304.832,223.019L344.517,223.019L344.517,183.334L304.832,183.334Z" style="fill:none;fill-rule:nonzero;stroke:rgb(0,0,255);stroke-width:0.08px;"/>
    </g>
    <g transform="matrix(1,0,0,1,114.94,78.0469)">
        <path d="M358.832,183.334L358.832,223.019L398.517,223.019L398.517,183.334L358.832,183.334Z" style="fill:none;fill-rule:nonzero;stroke:rgb(0,0,255);stroke-width:0.08px;"/>
    </g>
    <g transform="matrix(1,0,0,1,114.94,78.0469)">
        <path d="M412.832,183.334L412.832,223.019L452.517,223.019L452.517,183.334L412.832,183.334Z" style="fill:none;fill-rule:nonzero;stroke:rgb(0,0,255);stroke-width:0.08px;"/>
    </g>
    <g transform="matrix(1,0,0,1,114.94,78.0469)">
        <path d="M466.832,183.334L466.832,223.019L506.517,223.019L506.517,183.334L466.832,183.334Z" style="fill:none;fill-rule:nonzero;stroke:rgb(0,0,255);stroke-width:0.08px;"/>
    </g>
    <g transform="matrix(1,0,0,1,114.94,78.0469)">
        <path d="M520.832,183.334L520.832,223.019L560.517,223.019L560.517,183.334L520.832,183.334Z" style="fill:none;fill-rule:nonzero;stroke:rgb(0,0,255);stroke-width:0.08px;"/>
    </g>
    <g transform="matrix(1,0,0,1,114.94,78.0469)">
        <path d="M574.832,183.334L574.832,223.019L614.517,223.019L614.517,183.334L574.832,183.334Z" style="fill:none;fill-rule:nonzero;stroke:rgb(0,0,255);stroke-width:0.08px;"/>
    </g>
    <g transform="matrix(1,0,0,1,114.94,78.0469)">
        <path d="M628.832,183.334L628.832,223.019L668.517,223.019L668.517,183.334L628.832,183.334Z" style="fill:none;fill-rule:nonzero;stroke:rgb(0,0,255);stroke-width:0.08px;"/>
    </g>
    <g transform="matrix(1,0,0,1,114.94,78.0469)">
        <path d="M703.083,183.334L703.083,223.019L742.768,223.019L742.768,183.334L703.083,183.334Z" style="fill:none;fill-rule:nonzero;stroke:rgb(0,0,255);stroke-width:0.08px;"/>
    </g>
    <g transform="matrix(1,0,0,1,114.94,78.0469)">
        <path d="M777.334,183.334L777.334,223.019L817.019,223.019L817.019,183.334L777.334,183.334Z" style="fill:none;fill-rule:nonzero;stroke:rgb(0,0,255);stroke-width:0.08px;"/>
    </g>
    <g transform="matrix(1,0,0,1,114.94,78.0469)">
        <path d="M743.581,129.334L743.581,142.656L739.259,142.656L739.259,133.5L720.125,133.5L720.125,142.656L717.786,142.656L717.786,150.593L720.125,150.593L720.125,168.364L725.014,168.364L725.014,171.768L734.366,171.768L734.366,168.364L739.259,168.364L739.259,155.696L743.581,155.696L743.581,169.019L783.266,169.019L783.266,155.696L787.589,155.696L787.589,168.364L792.479,168.364L792.479,171.768L801.833,171.768L801.833,168.364L806.723,168.364L806.723,150.593L809.062,150.593L809.062,142.656L806.723,142.656L806.723,133.5L787.589,133.5L787.589,142.656L783.266,142.656L783.266,129.334L743.581,129.334Z" style="fill:none;fill-rule:nonzero;stroke:rgb(0,0,255);stroke-width:0.08px;"/>
    </g>
    <g transform="matrix(1,0,0,1,114.94,78.0469)">
        <path d="M41.581,129.334L41.581,169.019L81.266,169.019L81.266,129.334L41.581,129.334Z" style="fill:none;fill-rule:nonzero;stroke:rgb(0,0,255);stroke-width:0.08px;"/>
    </g>
    <g transform="matrix(1,0,0,1,114.94,78.0469)">
        <path d="M115.832,129.334L115.832,169.019L155.517,169.019L155.517,129.334L115.832,129.334Z" style="fill:none;fill-rule:nonzero;stroke:rgb(0,0,255);stroke-width:0.08px;"/>
    </g>
    <g transform="matrix(1,0,0,1,114.94,78.0469)">
        <path d="M169.832,129.334L169.832,169.019L209.517,169.019L209.517,129.334L169.832,129.334Z" style="fill:none;fill-rule:nonzero;stroke:rgb(0,0,255);stroke-width:0.08px;"/>
    </g>
    <g transform="matrix(1,0,0,1,114.94,78.0469)">
        <path d="M223.832,129.334L223.832,169.019L263.517,169.019L263.517,129.334L223.832,129.334Z" style="fill:none;fill-rule:nonzero;stroke:rgb(0,0,255);stroke-width:0.08px;"/>
    </g>
    <g transform="matrix(1,0,0,1,114.94,78.0469)">
        <path d="M277.832,129.334L277.832,169.019L317.517,169.019L317.517,129.334L277.832,129.334Z" style="fill:none;fill-rule:nonzero;stroke:rgb(0,0,255);stroke-width:0.08px;"/>
    </g>
    <g transform="matrix(1,0,0,1,114.94,78.0469)">
        <path d="M331.832,129.334L331.832,169.019L371.517,169.019L371.517,129.334L331.832,129.334Z" style="fill:none;fill-rule:nonzero;stroke:rgb(0,0,255);stroke-width:0.08px;"/>
    </g>
    <g transform="matrix(1,0,0,1,114.94,78.0469)">
        <path d="M385.832,129.334L385.832,169.019L425.517,169.019L425.517,129.334L385.832,129.334Z" style="fill:none;fill-rule:nonzero;stroke:rgb(0,0,255);stroke-width:0.08px;"/>
    </g>
    <g transform="matrix(1,0,0,1,114.94,78.0469)">
        <path d="M439.832,129.334L439.832,169.019L479.517,169.019L479.517,129.334L439.832,129.334Z" style="fill:none;fill-rule:nonzero;stroke:rgb(0,0,255);stroke-width:0.08px;"/>
    </g>
    <g transform="matrix(1,0,0,1,114.94,78.0469)">
        <path d="M493.832,129.334L493.832,169.019L533.517,169.019L533.517,129.334L493.832,129.334Z" style="fill:none;fill-rule:nonzero;stroke:rgb(0,0,255);stroke-width:0.08px;"/>
    </g>
    <g transform="matrix(1,0,0,1,114.94,78.0469)">
        <path d="M547.832,129.334L547.832,169.019L587.517,169.019L587.517,129.334L547.832,129.334Z" style="fill:none;fill-rule:nonzero;stroke:rgb(0,0,255);stroke-width:0.08px;"/>
    </g>
    <g transform="matrix(1,0,0,1,114.94,78.0469)">
        <path d="M601.832,129.334L601.832,169.019L641.517,169.019L641.517,129.334L601.832,129.334Z" style="fill:none;fill-rule:nonzero;stroke:rgb(0,0,255);stroke-width:0.08px;"/>
    </g>
    <g transform="matrix(1,0,0,1,114.94,78.0469)">
        <path d="M655.832,129.334L655.832,169.019L695.517,169.019L695.517,129.334L655.832,129.334Z" style="fill:none;fill-rule:nonzero;stroke:rgb(0,0,255);stroke-width:0.08px;"/>
    </g>
    <g transform="matrix(1,0,0,1,114.94,78.0469)">
        <path d="M34.832,75.334L34.832,115.019L74.517,115.019L74.517,75.334L34.832,75.334Z" style="fill:none;fill-rule:nonzero;stroke:rgb(0,0,255);stroke-width:0.08px;"/>
    </g>
    <g transform="matrix(1,0,0,1,114.94,78.0469)">
        <path d="M102.334,75.334L102.334,115.019L142.019,115.019L142.019,75.334L102.334,75.334Z" style="fill:none;fill-rule:nonzero;stroke:rgb(0,0,255);stroke-width:0.08px;"/>
    </g>
    <g transform="matrix(1,0,0,1,114.94,78.0469)">
        <path d="M156.334,75.334L156.334,115.019L196.019,115.019L196.019,75.334L156.334,75.334Z" style="fill:none;fill-rule:nonzero;stroke:rgb(0,0,255);stroke-width:0.08px;"/>
    </g>
    <g transform="matrix(1,0,0,1,114.94,78.0469)">
        <path d="M210.334,75.334L210.334,115.019L250.019,115.019L250.019,75.334L210.334,75.334Z" style="fill:none;fill-rule:nonzero;stroke:rgb(0,0,255);stroke-width:0.08px;"/>
    </g>
    <g transform="matrix(1,0,0,1,114.94,78.0469)">
        <path d="M264.334,75.334L264.334,115.019L304.019,115.019L304.019,75.334L264.334,75.334Z" style="fill:none;fill-rule:nonzero;stroke:rgb(0,0,255);stroke-width:0.08px;"/>
    </g>
    <g transform="matrix(1,0,0,1,114.94,78.0469)">
        <path d="M318.334,75.334L318.334,115.019L358.019,115.019L358.019,75.334L318.334,75.334Z" style="fill:none;fill-rule:nonzero;stroke:rgb(0,0,255);stroke-width:0.08px;"/>
    </g>
    <g transform="matrix(1,0,0,1,114.94,78.0469)">
        <path d="M372.334,75.334L372.334,115.019L412.019,115.019L412.019,75.334L372.334,75.334Z" style="fill:none;fill-rule:nonzero;stroke:rgb(0,0,255);stroke-width:0.08px;"/>
    </g>
    <g transform="matrix(1,0,0,1,114.94,78.0469)">
        <path d="M426.334,75.334L426.334,115.019L466.019,115.019L466.019,75.334L426.334,75.334Z" style="fill:none;fill-rule:nonzero;stroke:rgb(0,0,255);stroke-width:0.08px;"/>
    </g>
    <g transform="matrix(1,0,0,1,114.94,78.0469)">
        <path d="M480.334,75.334L480.334,115.019L520.019,115.019L520.019,75.334L480.334,75.334Z" style="fill:none;fill-rule:nonzero;stroke:rgb(0,0,255);stroke-width:0.08px;"/>
    </g>
    <g transform="matrix(1,0,0,1,114.94,78.0469)">
        <path d="M534.334,75.334L534.334,115.019L574.019,115.019L574.019,75.334L534.334,75.334Z" style="fill:none;fill-rule:nonzero;stroke:rgb(0,0,255);stroke-width:0.08px;"/>
    </g>
    <g transform="matrix(1,0,0,1,114.94,78.0469)">
        <path d="M588.334,75.334L588.334,115.019L628.019,115.019L628.019,75.334L588.334,75.334Z" style="fill:none;fill-rule:nonzero;stroke:rgb(0,0,255);stroke-width:0.08px;"/>
    </g>
    <g transform="matrix(1,0,0,1,114.94,78.0469)">
        <path d="M642.334,75.334L642.334,115.019L682.019,115.019L682.019,75.334L642.334,75.334Z" style="fill:none;fill-rule:nonzero;stroke:rgb(0,0,255);stroke-width:0.08px;"/>
    </g>
    <g transform="matrix(1,0,0,1,114.94,78.0469)">
        <path d="M696.334,75.334L696.334,115.019L736.016,115.019L736.016,75.334L696.334,75.334Z" style="fill:none;fill-rule:nonzero;stroke:rgb(0,0,255);stroke-width:0.08px;"/>
    </g>
    <g transform="matrix(1,0,0,1,114.94,78.0469)">
        <path d="M763.832,75.334L763.832,115.019L803.517,115.019L803.517,75.334L763.832,75.334Z" style="fill:none;fill-rule:nonzero;stroke:rgb(0,0,255);stroke-width:0.08px;"/>
    </g>
    <g transform="matrix(1,0,0,1,114.94,78.0469)">
        <path d="M21.334,21.334L21.334,61.019L61.019,61.019L61.019,21.334L21.334,21.334Z" style="fill:none;fill-rule:nonzero;stroke:rgb(0,0,255);stroke-width:0.08px;"/>
    </g>
    <g transform="matrix(1,0,0,1,114.94,78.0469)">
        <path d="M75.334,21.334L75.334,61.019L115.019,61.019L115.019,21.334L75.334,21.334Z" style="fill:none;fill-rule:nonzero;stroke:rgb(0,0,255);stroke-width:0.08px;"/>
    </g>
    <g transform="matrix(1,0,0,1,114.94,78.0469)">
        <path d="M129.334,21.334L129.334,61.019L169.019,61.019L169.019,21.334L129.334,21.334Z" style="fill:none;fill-rule:nonzero;stroke:rgb(0,0,255);stroke-width:0.08px;"/>
    </g>
    <g transform="matrix(1,0,0,1,114.94,78.0469)">
        <path d="M183.334,21.334L183.334,61.019L223.019,61.019L223.019,21.334L183.334,21.334Z" style="fill:none;fill-rule:nonzero;stroke:rgb(0,0,255);stroke-width:0.08px;"/>
    </g>
    <g transform="matrix(1,0,0,1,114.94,78.0469)">
        <path d="M237.334,21.334L237.334,61.019L277.019,61.019L277.019,21.334L237.334,21.334Z" style="fill:none;fill-rule:nonzero;stroke:rgb(0,0,255);stroke-width:0.08px;"/>
    </g>
    <g transform="matrix(1,0,0,1,114.94,78.0469)">
        <path d="M291.331,21.334L291.331,61.019L331.016,61.019L331.016,21.334L291.331,21.334Z" style="fill:none;fill-rule:nonzero;stroke:rgb(0,0,255);stroke-width:0.08px;"/>
    </g>
    <g transform="matrix(1,0,0,1,114.94,78.0469)">
        <path d="M345.331,21.334L345.331,61.019L385.019,61.019L385.019,21.334L345.331,21.334Z" style="fill:none;fill-rule:nonzero;stroke:rgb(0,0,255);stroke-width:0.08px;"/>
    </g>
    <g transform="matrix(1,0,0,1,114.94,78.0469)">
        <path d="M399.334,21.334L399.334,61.019L439.019,61.019L439.019,21.334L399.334,21.334Z" style="fill:none;fill-rule:nonzero;stroke:rgb(0,0,255);stroke-width:0.08px;"/>
    </g>
    <g transform="matrix(1,0,0,1,114.94,78.0469)">
        <path d="M453.334,21.334L453.334,61.019L493.019,61.019L493.019,21.334L453.334,21.334Z" style="fill:none;fill-rule:nonzero;stroke:rgb(0,0,255);stroke-width:0.08px;"/>
    </g>
    <g transform="matrix(1,0,0,1,114.94,78.0469)">
        <path d="M507.334,21.334L507.334,61.019L547.019,61.019L547.019,21.334L507.334,21.334Z" style="fill:none;fill-rule:nonzero;stroke:rgb(0,0,255);stroke-width:0.08px;"/>
    </g>
    <g transform="matrix(1,0,0,1,114.94,78.0469)">
        <path d="M561.334,21.334L561.334,61.019L601.019,61.019L601.019,21.334L561.334,21.334Z" style="fill:none;fill-rule:nonzero;stroke:rgb(0,0,255);stroke-width:0.08px;"/>
    </g>
    <g transform="matrix(1,0,0,1,114.94,78.0469)">
        <path d="M615.334,21.334L615.334,61.019L655.019,61.019L655.019,21.334L615.334,21.334Z" style="fill:none;fill-rule:nonzero;stroke:rgb(0,0,255);stroke-width:0.08px;"/>
    </g>
    <g transform="matrix(1,0,0,1,114.94,78.0469)">
        <path d="M669.334,21.334L669.334,61.019L709.019,61.019L709.019,21.334L669.334,21.334Z" style="fill:none;fill-rule:nonzero;stroke:rgb(0,0,255);stroke-width:0.08px;"/>
    </g>
    <g transform="matrix(1,0,0,1,114.94,78.0469)">
        <path d="M723.334,21.334L723.334,61.019L763.019,61.019L763.019,21.334L723.334,21.334Z" style="fill:none;fill-rule:nonzero;stroke:rgb(0,0,255);stroke-width:0.08px;"/>
    </g>
    <g transform="matrix(1,0,0,1,114.94,78.0469)">
        <path d="M777.334,21.334L777.334,61.019L817.019,61.019L817.019,21.334L777.334,21.334Z" style="fill:none;fill-rule:nonzero;stroke:rgb(0,0,255);stroke-width:0.08px;"/>
    </g>
    <g transform="matrix(1,0,0,1,114.43,398.212)">
        <path d="M824.179,284.176L14.176,284.176L14.176,14.176L824.179,14.176L824.179,284.176Z" style="fill:none;fill-rule:nonzero;stroke:rgb(0,0,255);stroke-width:0.08px;"/>
    </g>
    <g transform="matrix(1,0,0,1,114.43,398.212)">
        <path d="M399.334,237.334L399.334,250.656L266.743,250.656L266.743,241.5L247.609,241.5L247.609,250.656L245.271,250.656L245.271,258.593L247.609,258.593L247.609,276.364L252.499,276.364L252.499,279.768L261.853,279.768L261.853,276.364L266.743,276.364L266.743,263.693L399.334,263.693L399.334,277.019L439.019,277.019L439.019,263.693L571.609,263.693L571.609,276.364L576.499,276.364L576.499,279.768L585.853,279.768L585.853,276.364L590.743,276.364L590.743,258.593L593.082,258.593L593.082,250.656L590.743,250.656L590.743,241.5L571.609,241.5L571.609,250.656L439.019,250.656L439.019,237.334L399.334,237.334Z" style="fill:none;fill-rule:nonzero;stroke:rgb(0,0,255);stroke-width:0.08px;"/>
    </g>
    <g transform="matrix(1,0,0,1,114.43,398.212)">
        <path d="M34.832,237.334L34.832,277.019L74.517,277.019L74.517,237.334L34.832,237.334Z" style="fill:none;fill-rule:nonzero;stroke:rgb(0,0,255);stroke-width:0.08px;"/>
    </g>
    <g transform="matrix(1,0,0,1,114.43,398.212)">
        <path d="M102.334,237.334L102.334,277.019L142.019,277.019L142.019,237.334L102.334,237.334Z" style="fill:none;fill-rule:nonzero;stroke:rgb(0,0,255);stroke-width:0.08px;"/>
    </g>
    <g transform="matrix(1,0,0,1,114.43,398.212)">
        <path d="M169.832,237.334L169.832,277.019L209.517,277.019L209.517,237.334L169.832,237.334Z" style="fill:none;fill-rule:nonzero;stroke:rgb(0,0,255);stroke-width:0.08px;"/>
    </g>
    <g transform="matrix(1,0,0,1,114.43,398.212)">
        <path d="M628.832,237.334L628.832,277.019L668.517,277.019L668.517,237.334L628.832,237.334Z" style="fill:none;fill-rule:nonzero;stroke:rgb(0,0,255);stroke-width:0.08px;"/>
    </g>
    <g transform="matrix(1,0,0,1,114.43,398.212)">
        <path d="M696.334,237.334L696.334,277.019L736.016,277.019L736.016,237.334L696.334,237.334Z" style="fill:none;fill-rule:nonzero;stroke:rgb(0,0,255);stroke-width:0.08px;"/>
    </g>
    <g transform="matrix(1,0,0,1,114.43,398.212)">
        <path d="M763.832,237.334L763.832,277.019L803.517,277.019L803.517,237.334L763.832,237.334Z" style="fill:none;fill-rule:nonzero;stroke:rgb(0,0,255);stroke-width:0.08px;"/>
    </g>
    <g transform="matrix(1,0,0,1,114.43,398.212)">
        <path d="M55.083,183.334L55.083,196.656L50.76,196.656L50.76,187.5L31.626,187.5L31.626,196.656L29.288,196.656L29.288,204.593L31.626,204.593L31.626,222.367L36.516,222.367L36.516,225.768L45.87,225.768L45.87,222.367L50.76,222.367L50.76,209.696L55.083,209.696L55.083,223.019L94.768,223.019L94.768,209.696L99.091,209.696L99.091,222.367L103.98,222.367L103.98,225.768L113.335,225.768L113.335,222.367L118.225,222.367L118.225,204.593L120.563,204.593L120.563,196.656L118.225,196.656L118.225,187.5L99.091,187.5L99.091,196.656L94.768,196.656L94.768,183.334L55.083,183.334Z" style="fill:none;fill-rule:nonzero;stroke:rgb(0,0,255);stroke-width:0.08px;"/>
    </g>
    <g transform="matrix(1,0,0,1,114.43,398.212)">
        <path d="M142.832,183.334L142.832,223.019L182.517,223.019L182.517,183.334L142.832,183.334Z" style="fill:none;fill-rule:nonzero;stroke:rgb(0,0,255);stroke-width:0.08px;"/>
    </g>
    <g transform="matrix(1,0,0,1,114.43,398.212)">
        <path d="M196.832,183.334L196.832,223.019L236.517,223.019L236.517,183.334L196.832,183.334Z" style="fill:none;fill-rule:nonzero;stroke:rgb(0,0,255);stroke-width:0.08px;"/>
    </g>
    <g transform="matrix(1,0,0,1,114.43,398.212)">
        <path d="M250.832,183.334L250.832,223.019L290.517,223.019L290.517,183.334L250.832,183.334Z" style="fill:none;fill-rule:nonzero;stroke:rgb(0,0,255);stroke-width:0.08px;"/>
    </g>
    <g transform="matrix(1,0,0,1,114.43,398.212)">
        <path d="M304.832,183.334L304.832,223.019L344.517,223.019L344.517,183.334L304.832,183.334Z" style="fill:none;fill-rule:nonzero;stroke:rgb(0,0,255);stroke-width:0.08px;"/>
    </g>
    <g transform="matrix(1,0,0,1,114.43,398.212)">
        <path d="M358.832,183.334L358.832,223.019L398.517,223.019L398.517,183.334L358.832,183.334Z" style="fill:none;fill-rule:nonzero;stroke:rgb(0,0,255);stroke-width:0.08px;"/>
    </g>
    <g transform="matrix(1,0,0,1,114.43,398.212)">
        <path d="M412.832,183.334L412.832,223.019L452.517,223.019L452.517,183.334L412.832,183.334Z" style="fill:none;fill-rule:nonzero;stroke:rgb(0,0,255);stroke-width:0.08px;"/>
    </g>
    <g transform="matrix(1,0,0,1,114.43,398.212)">
        <path d="M466.832,183.334L466.832,223.019L506.517,223.019L506.517,183.334L466.832,183.334Z" style="fill:none;fill-rule:nonzero;stroke:rgb(0,0,255);stroke-width:0.08px;"/>
    </g>
    <g transform="matrix(1,0,0,1,114.43,398.212)">
        <path d="M520.832,183.334L520.832,223.019L560.517,223.019L560.517,183.334L520.832,183.334Z" style="fill:none;fill-rule:nonzero;stroke:rgb(0,0,255);stroke-width:0.08px;"/>
    </g>
    <g transform="matrix(1,0,0,1,114.43,398.212)">
        <path d="M574.832,183.334L574.832,223.019L614.517,223.019L614.517,183.334L574.832,183.334Z" style="fill:none;fill-rule:nonzero;stroke:rgb(0,0,255);stroke-width:0.08px;"/>
    </g>
    <g transform="matrix(1,0,0,1,114.43,398.212)">
        <path d="M628.832,183.334L628.832,223.019L668.517,223.019L668.517,183.334L628.832,183.334Z" style="fill:none;fill-rule:nonzero;stroke:rgb(0,0,255);stroke-width:0.08px;"/>
    </g>
    <g transform="matrix(1,0,0,1,114.43,398.212)">
        <path d="M703.083,183.334L703.083,223.019L742.768,223.019L742.768,183.334L703.083,183.334Z" style="fill:none;fill-rule:nonzero;stroke:rgb(0,0,255);stroke-width:0.08px;"/>
    </g>
    <g transform="matrix(1,0,0,1,114.43,398.212)">
        <path d="M777.334,183.334L777.334,223.019L817.019,223.019L817.019,183.334L777.334,183.334Z" style="fill:none;fill-rule:nonzero;stroke:rgb(0,0,255);stroke-width:0.08px;"/>
    </g>
    <g transform="matrix(1,0,0,1,114.43,398.212)">
        <path d="M743.581,129.334L743.581,142.656L739.259,142.656L739.259,133.5L720.125,133.5L720.125,142.656L717.786,142.656L717.786,150.593L720.125,150.593L720.125,168.364L725.014,168.364L725.014,171.768L734.366,171.768L734.366,168.364L739.259,168.364L739.259,155.696L743.581,155.696L743.581,169.019L783.266,169.019L783.266,155.696L787.589,155.696L787.589,168.364L792.479,168.364L792.479,171.768L801.833,171.768L801.833,168.364L806.723,168.364L806.723,150.593L809.062,150.593L809.062,142.656L806.723,142.656L806.723,133.5L787.589,133.5L787.589,142.656L783.266,142.656L783.266,129.334L743.581,129.334Z" style="fill:none;fill-rule:nonzero;stroke:rgb(0,0,255);stroke-width:0.08px;"/>
    </g>
    <g transform="matrix(1,0,0,1,114.43,398.212)">
        <path d="M41.581,129.334L41.581,169.019L81.266,169.019L81.266,129.334L41.581,129.334Z" style="fill:none;fill-rule:nonzero;stroke:rgb(0,0,255);stroke-width:0.08px;"/>
    </g>
    <g transform="matrix(1,0,0,1,114.43,398.212)">
        <path d="M115.832,129.334L115.832,169.019L155.517,169.019L155.517,129.334L115.832,129.334Z" style="fill:none;fill-rule:nonzero;stroke:rgb(0,0,255);stroke-width:0.08px;"/>
    </g>
    <g transform="matrix(1,0,0,1,114.43,398.212)">
        <path d="M169.832,129.334L169.832,169.019L209.517,169.019L209.517,129.334L169.832,129.334Z" style="fill:none;fill-rule:nonzero;stroke:rgb(0,0,255);stroke-width:0.08px;"/>
    </g>
    <g transform="matrix(1,0,0,1,114.43,398.212)">
        <path d="M223.832,129.334L223.832,169.019L263.517,169.019L263.517,129.334L223.832,129.334Z" style="fill:none;fill-rule:nonzero;stroke:rgb(0,0,255);stroke-width:0.08px;"/>
    </g>
    <g transform="matrix(1,0,0,1,114.43,398.212)">
        <path d="M277.832,129.334L277.832,169.019L317.517,169.019L317.517,129.334L277.832,129.334Z" style="fill:none;fill-rule:nonzero;stroke:rgb(0,0,255);stroke-width:0.08px;"/>
    </g>
    <g transform="matrix(1,0,0,1,114.43,398.212)">
        <path d="M331.832,129.334L331.832,169.019L371.517,169.019L371.517,129.334L331.832,129.334Z" style="fill:none;fill-rule:nonzero;stroke:rgb(0,0,255);stroke-width:0.08px;"/>
    </g>
    <g transform="matrix(1,0,0,1,114.43,398.212)">
        <path d="M385.832,129.334L385.832,169.019L425.517,169.019L425.517,129.334L385.832,129.334Z" style="fill:none;fill-rule:nonzero;stroke:rgb(0,0,255);stroke-width:0.08px;"/>
    </g>
    <g transform="matrix(1,0,0,1,114.43,398.212)">
        <path d="M439.832,129.334L439.832,169.019L479.517,169.019L479.517,129.334L439.832,129.334Z" style="fill:none;fill-rule:nonzero;stroke:rgb(0,0,255);stroke-width:0.08px;"/>
    </g>
    <g transform="matrix(1,0,0,1,114.43,398.212)">
        <path d="M493.832,129.334L493.832,169.019L533.517,169.019L533.517,129.334L493.832,129.334Z" style="fill:none;fill-rule:nonzero;stroke:rgb(0,0,255);stroke-width:0.08px;"/>
    </g>
    <g transform="matrix(1,0,0,1,114.43,398.212)">
        <path d="M547.832,129.334L547.832,169.019L587.517,169.019L587.517,129.334L547.832,129.334Z" style="fill:none;fill-rule:nonzero;stroke:rgb(0,0,255);stroke-width:0.08px;"/>
    </g>
    <g transform="matrix(1,0,0,1,114.43,398.212)">
        <path d="M601.832,129.334L601.832,169.019L641.517,169.019L641.517,129.334L601.832,129.334Z" style="fill:none;fill-rule:nonzero;stroke:rgb(0,0,255);stroke-width:0.08px;"/>
    </g>
    <g transform="matrix(1,0,0,1,114.43,398.212)">
        <path d="M655.832,129.334L655.832,169.019L695.517,169.019L695.517,129.334L655.832,129.334Z" style="fill:none;fill-rule:nonzero;stroke:rgb(0,0,255);stroke-width:0.08px;"/>
    </g>
    <g transform="matrix(1,0,0,1,114.43,398.212)">
        <path d="M34.832,75.334L34.832,115.019L74.517,115.019L74.517,75.334L34.832,75.334Z" style="fill:none;fill-rule:nonzero;stroke:rgb(0,0,255);stroke-width:0.08px;"/>
    </g>
    <g transform="matrix(1,0,0,1,114.43,398.212)">
        <path d="M102.334,75.334L102.334,115.019L142.019,115.019L142.019,75.334L102.334,75.334Z" style="fill:none;fill-rule:nonzero;stroke:rgb(0,0,255);stroke-width:0.08px;"/>
    </g>
    <g transform="matrix(1,0,0,1,114.43,398.212)">
        <path d="M156.334,75.334L156.334,115.019L196.019,115.019L196.019,75.334L156.334,75.334Z" style="fill:none;fill-rule:nonzero;stroke:rgb(0,0,255);stroke-width:0.08px;"/>
    </g>
    <g transform="matrix(1,0,0,1,114.43,398.212)">
        <path d="M210.334,75.334L210.334,115.019L250.019,115.019L250.019,75.334L210.334,75.334Z" style="fill:none;fill-rule:nonzero;stroke:rgb(0,0,255);stroke-width:0.08px;"/>
    </g>
    <g transform="matrix(1,0,0,1,114.43,398.212)">
        <path d="M264.334,75.334L264.334,115.019L304.019,115.019L304.019,75.334L264.334,75.334Z" style="fill:none;fill-rule:nonzero;stroke:rgb(0,0,255);stroke-width:0.08px;"/>
    </g>
    <g transform="matrix(1,0,0,1,114.43,398.212)">
        <path d="M318.334,75.334L318.334,115.019L358.019,115.019L358.019,75.334L318.334,75.334Z" style="fill:none;fill-rule:nonzero;stroke:rgb(0,0,255);stroke-width:0.08px;"/>
    </g>
    <g transform="matrix(1,0,0,1,114.43,398.212)">
        <path d="M372.334,75.334L372.334,115.019L412.019,115.019L412.019,75.334L372.334,75.334Z" style="fill:none;fill-rule:nonzero;stroke:rgb(0,0,255);stroke-width:0.08px;"/>
    </g>
    <g transform="matrix(1,0,0,1,114.43,398.212)">
        <path d="M426.334,75.334L426.334,115.019L466.019,115.019L466.019,75.334L426.334,75.334Z" style="fill:none;fill-rule:nonzero;stroke:rgb(0,0,255);stroke-width:0.08px;"/>
    </g>
    <g transform="matrix(1,0,0,1,114.43,398.212)">
        <path d="M480.334,75.334L480.334,115.019L520.019,115.019L520.019,75.334L480.334,75.334Z" style="fill:none;fill-rule:nonzero;stroke:rgb(0,0,255);stroke-width:0.08px;"/>
    </g>
    <g transform="matrix(1,0,0,1,114.43,398.212)">
        <path d="M534.334,75.334L534.334,115.019L574.019,115.019L574.019,75.334L534.334,75.334Z" style="fill:none;fill-rule:nonzero;stroke:rgb(0,0,255);stroke-width:0.08px;"/>
    </g>
    <g transform="matrix(1,0,0,1,114.43,398.212)">
        <path d="M588.334,75.334L588.334,115.019L628.019,115.019L628.019,75.334L588.334,75.334Z" style="fill:none;fill-rule:nonzero;stroke:rgb(0,0,255);stroke-width:0.08px;"/>
    </g>
    <g transform="matrix(1,0,0,1,114.43,398.212)">
        <path d="M642.334,75.334L642.334,115.019L682.019,115.019L682.019,75.334L642.334,75.334Z" style="fill:none;fill-rule:nonzero;stroke:rgb(0,0,255);stroke-width:0.08px;"/>
    </g>
    <g transform="matrix(1,0,0,1,114.43,398.212)">
        <path d="M696.334,75.334L696.334,115.019L736.016,115.019L736.016,75.334L696.334,75.334Z" style="fill:none;fill-rule:nonzero;stroke:rgb(0,0,255);stroke-width:0.08px;"/>
    </g>
    <g transform="matrix(1,0,0,1,114.43,398.212)">
        <path d="M763.832,75.334L763.832,115.019L803.517,115.019L803.517,75.334L763.832,75.334Z" style="fill:none;fill-rule:nonzero;stroke:rgb(0,0,255);stroke-width:0.08px;"/>
    </g>
    <g transform="matrix(1,0,0,1,114.43,398.212)">
        <path d="M21.334,21.334L21.334,61.019L61.019,61.019L61.019,21.334L21.334,21.334Z" style="fill:none;fill-rule:nonzero;stroke:rgb(0,0,255);stroke-width:0.08px;"/>
    </g>
    <g transform="matrix(1,0,0,1,114.43,398.212)">
        <path d="M75.334,21.334L75.334,61.019L115.019,61.019L115.019,21.334L75.334,21.334Z" style="fill:none;fill-rule:nonzero;stroke:rgb(0,0,255);stroke-width:0.08px;"/>
    </g>
    <g transform="matrix(1,0,0,1,114.43,398.212)">
        <path d="M129.334,21.334L129.334,61.019L169.019,61.019L169.019,21.334L129.334,21.334Z" style="fill:none;fill-rule:nonzero;stroke:rgb(0,0,255);stroke-width:0.08px;"/>
    </g>
    <g transform="matrix(1,0,0,1,114.43,398.212)">
        <path d="M183.334,21.334L183.334,61.019L223.019,61.019L223.019,21.334L183.334,21.334Z" style="fill:none;fill-rule:nonzero;stroke:rgb(0,0,255);stroke-width:0.08px;"/>
    </g>
    <g transform="matrix(1,0,0,1,114.43,398.212)">
        <path d="M237.334,21.334L237.334,61.019L277.019,61.019L277.019,21.334L237.334,21.334Z" style="fill:none;fill-rule:nonzero;stroke:rgb(0,0,255);stroke-width:0.08px;"/>
    </g>
    <g transform="matrix(1,0,0,1,114.43,398.212)">
        <path d="M291.331,21.334L291.331,61.019L331.016,61.019L331.016,21.334L291.331,21.334Z" style="fill:none;fill-rule:nonzero;stroke:rgb(0,0,255);stroke-width:0.08px;"/>
    </g>
    <g transform="matrix(1,0,0,1,114.43,398.212)">
        <path d="M345.331,21.334L345.331,61.019L385.019,61.019L385.019,21.334L345.331,21.334Z" style="fill:none;fill-rule:nonzero;stroke:rgb(0,0,255);stroke-width:0.08px;"/>
    </g>
    <g transform="matrix(1,0,0,1,114.43,398.212)">
        <path d="M399.334,21.334L399.334,61.019L439.019,61.019L439.019,21.334L399.334,21.334Z" style="fill:none;fill-rule:nonzero;stroke:rgb(0,0,255);stroke-width:0.08px;"/>
    </g>
    <g transform="matrix(1,0,0,1,114.43,398.212)">
        <path d="M453.334,21.334L453.334,61.019L493.019,61.019L493.019,21.334L453.334,21.334Z" style="fill:none;fill-rule:nonzero;stroke:rgb(0,0,255);stroke-width:0.08px;"/>
    </g>
    <g transform="matrix(1,0,0,1,114.43,398.212)">
        <path d="M507.334,21.334L507.334,61.019L547.019,61.019L547.019,21.334L507.334,21.334Z" style="fill:none;fill-rule:nonzero;stroke:rgb(0,0,255);stroke-width:0.08px;"/>
    </g>
    <g transform="matrix(1,0,0,1,114.43,398.212)">
        <path d="M561.334,21.334L561.334,61.019L601.019,61.019L601.019,21.334L561.334,21.334Z" style="fill:none;fill-rule:nonzero;stroke:rgb(0,0,255);stroke-width:0.08px;"/>
    </g>
    <g transform="matrix(1,0,0,1,114.43,398.212)">
        <path d="M615.334,21.334L615.334,61.019L655.019,61.019L655.019,21.334L615.334,21.334Z" style="fill:none;fill-rule:nonzero;stroke:rgb(0,0,255);stroke-width:0.08px;"/>
    </g>
    <g transform="matrix(1,0,0,1,114.43,398.212)">
        <path d="M669.334,21.334L669.334,61.019L709.019,61.019L709.019,21.334L669.334,21.334Z" style="fill:none;fill-rule:nonzero;stroke:rgb(0,0,255);stroke-width:0.08px;"/>
    </g>
    <g transform="matrix(1,0,0,1,114.43,398.212)">
        <path d="M723.334,21.334L723.334,61.019L763.019,61.019L763.019,21.334L723.334,21.334Z" style="fill:none;fill-rule:nonzero;stroke:rgb(0,0,255);stroke-width:0.08px;"/>
    </g>
    <g transform="matrix(1,0,0,1,114.43,398.212)">
        <path d="M777.334,21.334L777.334,61.019L817.019,61.019L817.019,21.334L777.334,21.334Z" style="fill:none;fill-rule:nonzero;stroke:rgb(0,0,255);stroke-width:0.08px;"/>
    </g>
    <g transform="matrix(1,0,0,1,114.262,740.614)">
        <path d="M824.179,284.176L14.176,284.176L14.176,14.176L824.179,14.176L824.179,284.176Z" style="fill:none;fill-rule:nonzero;stroke:rgb(0,0,255);stroke-width:0.08px;"/>
    </g>
    <g transform="matrix(1,0,0,1,114.262,740.614)">
        <path d="M399.334,237.334L399.334,250.656L266.743,250.656L266.743,241.5L247.609,241.5L247.609,250.656L245.271,250.656L245.271,258.593L247.609,258.593L247.609,276.364L252.499,276.364L252.499,279.768L261.853,279.768L261.853,276.364L266.743,276.364L266.743,263.693L399.334,263.693L399.334,277.019L439.019,277.019L439.019,263.693L571.609,263.693L571.609,276.364L576.499,276.364L576.499,279.768L585.853,279.768L585.853,276.364L590.743,276.364L590.743,258.593L593.082,258.593L593.082,250.656L590.743,250.656L590.743,241.5L571.609,241.5L571.609,250.656L439.019,250.656L439.019,237.334L399.334,237.334Z" style="fill:none;fill-rule:nonzero;stroke:rgb(0,0,255);stroke-width:0.08px;"/>
    </g>
    <g transform="matrix(1,0,0,1,114.262,740.614)">
        <path d="M34.832,237.334L34.832,277.019L74.517,277.019L74.517,237.334L34.832,237.334Z" style="fill:none;fill-rule:nonzero;stroke:rgb(0,0,255);stroke-width:0.08px;"/>
    </g>
    <g transform="matrix(1,0,0,1,114.262,740.614)">
        <path d="M102.334,237.334L102.334,277.019L142.019,277.019L142.019,237.334L102.334,237.334Z" style="fill:none;fill-rule:nonzero;stroke:rgb(0,0,255);stroke-width:0.08px;"/>
    </g>
    <g transform="matrix(1,0,0,1,114.262,740.614)">
        <path d="M169.832,237.334L169.832,277.019L209.517,277.019L209.517,237.334L169.832,237.334Z" style="fill:none;fill-rule:nonzero;stroke:rgb(0,0,255);stroke-width:0.08px;"/>
    </g>
    <g transform="matrix(1,0,0,1,114.262,740.614)">
        <path d="M628.832,237.334L628.832,277.019L668.517,277.019L668.517,237.334L628.832,237.334Z" style="fill:none;fill-rule:nonzero;stroke:rgb(0,0,255);stroke-width:0.08px;"/>
    </g>
    <g transform="matrix(1,0,0,1,114.262,740.614)">
        <path d="M696.334,237.334L696.334,277.019L736.016,277.019L736.016,237.334L696.334,237.334Z" style="fill:none;fill-rule:nonzero;stroke:rgb(0,0,255);stroke-width:0.08px;"/>
    </g>
    <g transform="matrix(1,0,0,1,114.262,740.614)">
        <path d="M763.832,237.334L763.832,277.019L803.517,277.019L803.517,237.334L763.832,237.334Z" style="fill:none;fill-rule:nonzero;stroke:rgb(0,0,255);stroke-width:0.08px;"/>
    </g>
    <g transform="matrix(1,0,0,1,114.262,740.614)">
        <path d="M55.083,183.334L55.083,196.656L50.76,196.656L50.76,187.5L31.626,187.5L31.626,196.656L29.288,196.656L29.288,204.593L31.626,204.593L31.626,222.367L36.516,222.367L36.516,225.768L45.87,225.768L45.87,222.367L50.76,222.367L50.76,209.696L55.083,209.696L55.083,223.019L94.768,223.019L94.768,209.696L99.091,209.696L99.091,222.367L103.98,222.367L103.98,225.768L113.335,225.768L113.335,222.367L118.225,222.367L118.225,204.593L120.563,204.593L120.563,196.656L118.225,196.656L118.225,187.5L99.091,187.5L99.091,196.656L94.768,196.656L94.768,183.334L55.083,183.334Z" style="fill:none;fill-rule:nonzero;stroke:rgb(0,0,255);stroke-width:0.08px;"/>
    </g>
    <g transform="matrix(1,0,0,1,114.262,740.614)">
        <path d="M142.832,183.334L142.832,223.019L182.517,223.019L182.517,183.334L142.832,183.334Z" style="fill:none;fill-rule:nonzero;stroke:rgb(0,0,255);stroke-width:0.08px;"/>
    </g>
    <g transform="matrix(1,0,0,1,114.262,740.614)">
        <path d="M196.832,183.334L196.832,223.019L236.517,223.019L236.517,183.334L196.832,183.334Z" style="fill:none;fill-rule:nonzero;stroke:rgb(0,0,255);stroke-width:0.08px;"/>
    </g>
    <g transform="matrix(1,0,0,1,114.262,740.614)">
        <path d="M250.832,183.334L250.832,223.019L290.517,223.019L290.517,183.334L250.832,183.334Z" style="fill:none;fill-rule:nonzero;stroke:rgb(0,0,255);stroke-width:0.08px;"/>
    </g>
    <g transform="matrix(1,0,0,1,114.262,740.614)">
        <path d="M304.832,183.334L304.832,223.019L344.517,223.019L344.517,183.334L304.832,183.334Z" style="fill:none;fill-rule:nonzero;stroke:rgb(0,0,255);stroke-width:0.08px;"/>
    </g>
    <g transform="matrix(1,0,0,1,114.262,740.614)">
        <path d="M358.832,183.334L358.832,223.019L398.517,223.019L398.517,183.334L358.832,183.334Z" style="fill:none;fill-rule:nonzero;stroke:rgb(0,0,255);stroke-width:0.08px;"/>
    </g>
    <g transform="matrix(1,0,0,1,114.262,740.614)">
        <path d="M412.832,183.334L412.832,223.019L452.517,223.019L452.517,183.334L412.832,183.334Z" style="fill:none;fill-rule:nonzero;stroke:rgb(0,0,255);stroke-width:0.08px;"/>
    </g>
    <g transform="matrix(1,0,0,1,114.262,740.614)">
        <path d="M466.832,183.334L466.832,223.019L506.517,223.019L506.517,183.334L466.832,183.334Z" style="fill:none;fill-rule:nonzero;stroke:rgb(0,0,255);stroke-width:0.08px;"/>
    </g>
    <g transform="matrix(1,0,0,1,114.262,740.614)">
        <path d="M520.832,183.334L520.832,223.019L560.517,223.019L560.517,183.334L520.832,183.334Z" style="fill:none;fill-rule:nonzero;stroke:rgb(0,0,255);stroke-width:0.08px;"/>
    </g>
    <g transform="matrix(1,0,0,1,114.262,740.614)">
        <path d="M574.832,183.334L574.832,223.019L614.517,223.019L614.517,183.334L574.832,183.334Z" style="fill:none;fill-rule:nonzero;stroke:rgb(0,0,255);stroke-width:0.08px;"/>
    </g>
    <g transform="matrix(1,0,0,1,114.262,740.614)">
        <path d="M628.832,183.334L628.832,223.019L668.517,223.019L668.517,183.334L628.832,183.334Z" style="fill:none;fill-rule:nonzero;stroke:rgb(0,0,255);stroke-width:0.08px;"/>
    </g>
    <g transform="matrix(1,0,0,1,114.262,740.614)">
        <path d="M703.083,183.334L703.083,223.019L742.768,223.019L742.768,183.334L703.083,183.334Z" style="fill:none;fill-rule:nonzero;stroke:rgb(0,0,255);stroke-width:0.08px;"/>
    </g>
    <g transform="matrix(1,0,0,1,114.262,740.614)">
        <path d="M777.334,183.334L777.334,223.019L817.019,223.019L817.019,183.334L777.334,183.334Z" style="fill:none;fill-rule:nonzero;stroke:rgb(0,0,255);stroke-width:0.08px;"/>
    </g>
    <g transform="matrix(1,0,0,1,114.262,740.614)">
        <path d="M743.581,129.334L743.581,142.656L739.259,142.656L739.259,133.5L720.125,133.5L720.125,142.656L717.786,142.656L717.786,150.593L720.125,150.593L720.125,168.364L725.014,168.364L725.014,171.768L734.366,171.768L734.366,168.364L739.259,168.364L739.259,155.696L743.581,155.696L743.581,169.019L783.266,169.019L783.266,155.696L787.589,155.696L787.589,168.364L792.479,168.364L792.479,171.768L801.833,171.768L801.833,168.364L806.723,168.364L806.723,150.593L809.062,150.593L809.062,142.656L806.723,142.656L806.723,133.5L787.589,133.5L787.589,142.656L783.266,142.656L783.266,129.334L743.581,129.334Z" style="fill:none;fill-rule:nonzero;stroke:rgb(0,0,255);stroke-width:0.08px;"/>
    </g>
    <g transform="matrix(1,0,0,1,114.262,740.614)">
        <path d="M41.581,129.334L41.581,169.019L81.266,169.019L81.266,129.334L41.581,129.334Z" style="fill:none;fill-rule:nonzero;stroke:rgb(0,0,255);stroke-width:0.08px;"/>
    </g>
    <g transform="matrix(1,0,0,1,114.262,740.614)">
        <path d="M115.832,129.334L115.832,169.019L155.517,169.019L155.517,129.334L115.832,129.334Z" style="fill:none;fill-rule:nonzero;stroke:rgb(0,0,255);stroke-width:0.08px;"/>
    </g>
    <g transform="matrix(1,0,0,1,114.262,740.614)">
        <path d="M169.832,129.334L169.832,169.019L209.517,169.019L209.517,129.334L169.832,129.334Z" style="fill:none;fill-rule:nonzero;stroke:rgb(0,0,255);stroke-width:0.08px;"/>
    </g>
    <g transform="matrix(1,0,0,1,114.262,740.614)">
        <path d="M223.832,129.334L223.832,169.019L263.517,169.019L263.517,129.334L223.832,129.334Z" style="fill:none;fill-rule:nonzero;stroke:rgb(0,0,255);stroke-width:0.08px;"/>
    </g>
    <g transform="matrix(1,0,0,1,114.262,740.614)">
        <path d="M277.832,129.334L277.832,169.019L317.517,169.019L317.517,129.334L277.832,129.334Z" style="fill:none;fill-rule:nonzero;stroke:rgb(0,0,255);stroke-width:0.08px;"/>
    </g>
    <g transform="matrix(1,0,0,1,114.262,740.614)">
        <path d="M331.832,129.334L331.832,169.019L371.517,169.019L371.517,129.334L331.832,129.334Z" style="fill:none;fill-rule:nonzero;stroke:rgb(0,0,255);stroke-width:0.08px;"/>
    </g>
    <g transform="matrix(1,0,0,1,114.262,740.614)">
        <path d="M385.832,129.334L385.832,169.019L425.517,169.019L425.517,129.334L385.832,129.334Z" style="fill:none;fill-rule:nonzero;stroke:rgb(0,0,255);stroke-width:0.08px;"/>
    </g>
    <g transform="matrix(1,0,0,1,114.262,740.614)">
        <path d="M439.832,129.334L439.832,169.019L479.517,169.019L479.517,129.334L439.832,129.334Z" style="fill:none;fill-rule:nonzero;stroke:rgb(0,0,255);stroke-width:0.08px;"/>
    </g>
    <g transform="matrix(1,0,0,1,114.262,740.614)">
        <path d="M493.832,129.334L493.832,169.019L533.517,169.019L533.517,129.334L493.832,129.334Z" style="fill:none;fill-rule:nonzero;stroke:rgb(0,0,255);stroke-width:0.08px;"/>
    </g>
    <g transform="matrix(1,0,0,1,114.262,740.614)">
        <path d="M547.832,129.334L547.832,169.019L587.517,169.019L587.517,129.334L547.832,129.334Z" style="fill:none;fill-rule:nonzero;stroke:rgb(0,0,255);stroke-width:0.08px;"/>
    </g>
    <g transform="matrix(1,0,0,1,114.262,740.614)">
        <path d="M601.832,129.334L601.832,169.019L641.517,169.019L641.517,129.334L601.832,129.334Z" style="fill:none;fill-rule:nonzero;stroke:rgb(0,0,255);stroke-width:0.08px;"/>
    </g>
    <g transform="matrix(1,0,0,1,114.262,740.614)">
        <path d="M655.832,129.334L655.832,169.019L695.517,169.019L695.517,129.334L655.832,129.334Z" style="fill:none;fill-rule:nonzero;stroke:rgb(0,0,255);stroke-width:0.08px;"/>
    </g>
    <g transform="matrix(1,0,0,1,114.262,740.614)">
        <path d="M34.832,75.334L34.832,115.019L74.517,115.019L74.517,75.334L34.832,75.334Z" style="fill:none;fill-rule:nonzero;stroke:rgb(0,0,255);stroke-width:0.08px;"/>
    </g>
    <g transform="matrix(1,0,0,1,114.262,740.614)">
        <path d="M102.334,75.334L102.334,115.019L142.019,115.019L142.019,75.334L102.334,75.334Z" style="fill:none;fill-rule:nonzero;stroke:rgb(0,0,255);stroke-width:0.08px;"/>
    </g>
    <g transform="matrix(1,0,0,1,114.262,740.614)">
        <path d="M156.334,75.334L156.334,115.019L196.019,115.019L196.019,75.334L156.334,75.334Z" style="fill:none;fill-rule:nonzero;stroke:rgb(0,0,255);stroke-width:0.08px;"/>
    </g>
    <g transform="matrix(1,0,0,1,114.262,740.614)">
        <path d="M210.334,75.334L210.334,115.019L250.019,115.019L250.019,75.334L210.334,75.334Z" style="fill:none;fill-rule:nonzero;stroke:rgb(0,0,255);stroke-width:0.08px;"/>
    </g>
    <g transform="matrix(1,0,0,1,114.262,740.614)">
        <path d="M264.334,75.334L264.334,115.019L304.019,115.019L304.019,75.334L264.334,75.334Z" style="fill:none;fill-rule:nonzero;stroke:rgb(0,0,255);stroke-width:0.08px;"/>
    </g>
    <g transform="matrix(1,0,0,1,114.262,740.614)">
        <path d="M318.334,75.334L318.334,115.019L358.019,115.019L358.019,75.334L318.334,75.334Z" style="fill:none;fill-rule:nonzero;stroke:rgb(0,0,255);stroke-width:0.08px;"/>
    </g>
    <g transform="matrix(1,0,0,1,114.262,740.614)">
        <path d="M372.334,75.334L372.334,115.019L412.019,115.019L412.019,75.334L372.334,75.334Z" style="fill:none;fill-rule:nonzero;stroke:rgb(0,0,255);stroke-width:0.08px;"/>
    </g>
    <g transform="matrix(1,0,0,1,114.262,740.614)">
        <path d="M426.334,75.334L426.334,115.019L466.019,115.019L466.019,75.334L426.334,75.334Z" style="fill:none;fill-rule:nonzero;stroke:rgb(0,0,255);stroke-width:0.08px;"/>
    </g>
    <g transform="matrix(1,0,0,1,114.262,740.614)">
        <path d="M480.334,75.334L480.334,115.019L520.019,115.019L520.019,75.334L480.334,75.334Z" style="fill:none;fill-rule:nonzero;stroke:rgb(0,0,255);stroke-width:0.08px;"/>
    </g>
    <g transform="matrix(1,0,0,1,114.262,740.614)">
        <path d="M534.334,75.334L534.334,115.019L574.019,115.019L574.019,75.334L534.334,75.334Z" style="fill:none;fill-rule:nonzero;stroke:rgb(0,0,255);stroke-width:0.08px;"/>
    </g>
    <g transform="matrix(1,0,0,1,114.262,740.614)">
        <path d="M588.334,75.334L588.334,115.019L628.019,115.019L628.019,75.334L588.334,75.334Z" style="fill:none;fill-rule:nonzero;stroke:rgb(0,0,255);stroke-width:0.08px;"/>
    </g>
    <g transform="matrix(1,0,0,1,114.262,740.614)">
        <path d="M642.334,75.334L642.334,115.019L682.019,115.019L682.019,75.334L642.334,75.334Z" style="fill:none;fill-rule:nonzero;stroke:rgb(0,0,255);stroke-width:0.08px;"/>
    </g>
    <g transform="matrix(1,0,0,1,114.262,740.614)">
        <path d="M696.334,75.334L696.334,115.019L736.016,115.019L736.016,75.334L696.334,75.334Z" style="fill:none;fill-rule:nonzero;stroke:rgb(0,0,255);stroke-width:0.08px;"/>
    </g>
    <g transform="matrix(1,0,0,1,114.262,740.614)">
        <path d="M763.832,75.334L763.832,115.019L803.517,115.019L803.517,75.334L763.832,75.334Z" style="fill:none;fill-rule:nonzero;stroke:rgb(0,0,255);stroke-width:0.08px;"/>
    </g>
    <g transform="matrix(1,0,0,1,114.262,740.614)">
        <path d="M21.334,21.334L21.334,61.019L61.019,61.019L61.019,21.334L21.334,21.334Z" style="fill:none;fill-rule:nonzero;stroke:rgb(0,0,255);stroke-width:0.08px;"/>
    </g>
    <g transform="matrix(1,0,0,1,114.262,740.614)">
        <path d="M75.334,21.334L75.334,61.019L115.019,61.019L115.019,21.334L75.334,21.334Z" style="fill:none;fill-rule:nonzero;stroke:rgb(0,0,255);stroke-width:0.08px;"/>
    </g>
    <g transform="matrix(1,0,0,1,114.262,740.614)">
        <path d="M129.334,21.334L129.334,61.019L169.019,61.019L169.019,21.334L129.334,21.334Z" style="fill:none;fill-rule:nonzero;stroke:rgb(0,0,255);stroke-width:0.08px;"/>
    </g>
    <g transform="matrix(1,0,0,1,114.262,740.614)">
        <path d="M183.334,21.334L183.334,61.019L223.019,61.019L223.019,21.334L183.334,21.334Z" style="fill:none;fill-rule:nonzero;stroke:rgb(0,0,255);stroke-width:0.08px;"/>
    </g>
    <g transform="matrix(1,0,0,1,114.262,740.614)">
        <path d="M237.334,21.334L237.334,61.019L277.019,61.019L277.019,21.334L237.334,21.334Z" style="fill:none;fill-rule:nonzero;stroke:rgb(0,0,255);stroke-width:0.08px;"/>
    </g>
    <g transform="matrix(1,0,0,1,114.262,740.614)">
        <path d="M291.331,21.334L291.331,61.019L331.016,61.019L331.016,21.334L291.331,21.334Z" style="fill:none;fill-rule:nonzero;stroke:rgb(0,0,255);stroke-width:0.08px;"/>
    </g>
    <g transform="matrix(1,0,0,1,114.262,740.614)">
        <path d="M345.331,21.334L345.331,61.019L385.019,61.019L385.019,21.334L345.331,21.334Z" style="fill:none;fill-rule:nonzero;stroke:rgb(0,0,255);stroke-width:0.08px;"/>
    </g>
    <g transform="matrix(1,0,0,1,114.262,740.614)">
        <path d="M399.334,21.334L399.334,61.019L439.019,61.019L439.019,21.334L399.334,21.334Z" style="fill:none;fill-rule:nonzero;stroke:rgb(0,0,255);stroke-width:0.08px;"/>
    </g>
    <g transform="matrix(1,0,0,1,114.262,740.614)">
        <path d="M453.334,21.334L453.334,61.019L493.019,61.019L493.019,21.334L453.334,21.334Z" style="fill:none;fill-rule:nonzero;stroke:rgb(0,0,255);stroke-width:0.08px;"/>
    </g>
    <g transform="matrix(1,0,0,1,114.262,740.614)">
        <path d="M507.334,21.334L507.334,61.019L547.019,61.019L547.019,21.334L507.334,21.334Z" style="fill:none;fill-rule:nonzero;stroke:rgb(0,0,255);stroke-width:0.08px;"/>
    </g>
    <g transform="matrix(1,0,0,1,114.262,740.614)">
        <path d="M561.334,21.334L561.334,61.019L601.019,61.019L601.019,21.334L561.334,21.334Z" style="fill:none;fill-rule:nonzero;stroke:rgb(0,0,255);stroke-width:0.08px;"/>
    </g>
    <g transform="matrix(1,0,0,1,114.262,740.614)">
        <path d="M615.334,21.334L615.334,61.019L655.019,61.019L655.019,21.334L615.334,21.334Z" style="fill:none;fill-rule:nonzero;stroke:rgb(0,0,255);stroke-width:0.08px;"/>
    </g>
    <g transform="matrix(1,0,0,1,114.262,740.614)">
        <path d="M669.334,21.334L669.334,61.019L709.019,61.019L709.019,21.334L669.334,21.334Z" style="fill:none;fill-rule:nonzero;stroke:rgb(0,0,255);stroke-width:0.08px;"/>
    </g>
    <g transform="matrix(1,0,0,1,114.262,740.614)">
        <path d="M723.334,21.334L723.334,61.019L763.019,61.019L763.019,21.334L723.334,21.334Z" style="fill:none;fill-rule:nonzero;stroke:rgb(0,0,255);stroke-width:0.08px;"/>
    </g>
    <g transform="matrix(1,0,0,1,114.262,740.614)">
        <path d="M777.334,21.334L777.334,61.019L817.019,61.019L817.019,21.334L777.334,21.334Z" style="fill:none;fill-rule:nonzero;stroke:rgb(0,0,255);stroke-width:0.08px;"/>
    </g>
</svg>
